<?xml version="1.0" encoding="utf-8"?>
<!-- Generator: Adobe Illustrator 27.2.0, SVG Export Plug-In . SVG Version: 6.00 Build 0)  -->
<svg version="1.1" id="Layer_2_00000114760300141023575820000001360773712205950858_"
	 xmlns="http://www.w3.org/2000/svg" xmlns:xlink="http://www.w3.org/1999/xlink" x="0px" y="0px" viewBox="0 0 128 128"
	 enable-background="new 0 0 128 128" xml:space="preserve">
<path fill="#C0C0C0" d="M91.68,54.38L8.98,54.2c-3.64,0-6.6,2.94-6.58,6.58l0.02,6.7c0,3.62,2.96,6.56,6.58,6.56l82.82-0.14l-26,26
	c-2.54,2.54-2.58,6.64-0.08,9.22l4.1,4.24c2.56,2.64,6.76,2.68,9.36,0.08l44.76-44.62c2.58-2.56,2.58-6.72,0.02-9.3L79.34,14.76
	c-2.54-2.54-6.66-2.58-9.24-0.08l-4.4,4.28c-2.62,2.56-2.66,6.76-0.06,9.36L91.68,54.38z"/>
</svg>
