<?xml version="1.0" encoding="UTF-8" standalone="no"?>
<!-- Created with Inkscape (http://www.inkscape.org/) -->

<svg
   width="256"
   height="128"
   viewBox="0 0 256 128"
   version="1.1"
   id="svg1"
   xmlns="http://www.w3.org/2000/svg"
   xmlns:svg="http://www.w3.org/2000/svg">
  <path
     id="arrow_left"
     style="fill:#c0c0c0;fill-opacity:1;stroke:none"
     d="m 8,64 56,56 c 6,6 14,-2 8,-8 L 56,96 C 44,80 44,72 44,64 44,56 44,48 56,32 L 72,16 C 78,10 70,2 64,8" />
  <path
     id="tail_left"
     style="fill:#c0c0c0;fill-opacity:1;stroke:none"
     d="m 60,56 h 56 c 2,0 4,2 4,4 v 8 c 0,2 -2,4 -4,4 H 60 c -2,0 -4,-2 -4,-4 v -8 c 0,-2 2,-4 4,-4 z" />
  <path
     id="tail_right"
     style="fill:#c0c0c0;fill-opacity:1;stroke:none"
     d="m 140,56 h 56 c 2,0 4,2 4,4 v 8 c 0,2 -2,4 -4,4 h -56 c -2,0 -4,-2 -4,-4 v -8 c 0,-2 2,-4 4,-4 z" />
  <path
     id="arrow_right"
     style="fill:#c0c0c0;fill-opacity:1;stroke:none"
     d="m 248,64 -56,56 c -6,6 -14,-2 -8,-8 l 16,-16 c 12,-16 12,-24 12,-32 0,-8 0,-16 -12,-32 L 184,16 c -6,-6 2,-14 8,-8" />
</svg>
