<?xml version="1.0" encoding="UTF-8" standalone="no"?>
<!-- Created with Inkscape (http://www.inkscape.org/) -->

<svg
   width="128"
   height="128"
   viewBox="0 0 128 128"
   version="1.1"
   id="svg1"
   xmlns="http://www.w3.org/2000/svg"
   xmlns:svg="http://www.w3.org/2000/svg">
  <defs
     id="defs1" />
  <path
     id="arrow_tail"
     style="fill:#c0c0c0;fill-opacity:1;stroke:none;stroke-width:4"
     d="m 12,56 h 56 c 2,0 4,2 4,4 v 8 c 0,2 -2,4 -4,4 H 12 C 10,72 8,70 8,68 v -8 c 0,-2 2,-4 4,-4 z" />
  <path
     id="arrow_head"
     style="fill:#c0c0c0;fill-opacity:1;stroke:none;stroke-width:3.99994"
     d="m 120,64 -56,56 c -6,6 -14,-2 -8,-8 L 72,96 C 84,80 84,72 84,64 84,56 84,48 72,32 L 56,16 C 50,10 58,2 64,8" />
</svg>
