<?xml version="1.0" encoding="utf-8"?>
<!-- Generator: Adobe Illustrator 27.2.0, SVG Export Plug-In . SVG Version: 6.00 Build 0)  -->
<svg version="1.1" id="Layer_2_00000114760300141023575820000001360773712205950858_"
	 xmlns="http://www.w3.org/2000/svg" xmlns:xlink="http://www.w3.org/1999/xlink" x="0px" y="0px" viewBox="0 0 128 128"
	 style="enable-background:new 0 0 128 128;" xml:space="preserve">
<style type="text/css">
	.st0{fill:#C0C0C0;}
</style>
<path class="st0" d="M62.7,28.3c2.6-2.6,2.6-6.8-0.1-9.4l-4.4-4.3c-2.6-2.5-6.7-2.5-9.2,0.1L4.3,59.5c-2.6,2.6-2.6,6.7,0,9.3
	l44.8,44.6c2.6,2.6,6.8,2.6,9.4-0.1l4.1-4.2c2.5-2.6,2.5-6.7-0.1-9.2l-26-26l82.8,0.1c3.6,0,6.6-2.9,6.6-6.6l0-6.7
	c0-3.6-2.9-6.6-6.6-6.6l-82.7,0.2L62.7,28.3z"/>
</svg>
