<?xml version="1.0" encoding="utf-8"?>
<!-- Generator: Adobe Illustrator 27.2.0, SVG Export Plug-In . SVG Version: 6.00 Build 0)  -->
<svg version="1.1" id="Layer_2_00000114760300141023575820000001360773712205950858_"
	 xmlns="http://www.w3.org/2000/svg" xmlns:xlink="http://www.w3.org/1999/xlink" x="0px" y="0px" viewBox="0 0 128 64"
	 style="enable-background:new 0 0 128 64;" xml:space="preserve">
<style type="text/css">
	.st0{fill:#C0C0C0;}
</style>
<path class="st0" d="M110.9,37L110.9,37H17.1l13,13c1.3,1.3,1.3,3.3,0.1,4.6l-2.1,2.1c-1.3,1.4-3.4,1.4-4.7,0.1L1,34.4
	c-1.3-1.3-1.3-3.4,0-4.7L23.4,7.4c1.3-1.3,3.3-1.3,4.6-0.1l2.2,2.2c1.4,1.3,1.4,3.4,0.1,4.7l-13.1,13c29.7,0,93.7,0,93.7,0l-13.1-13
	c-1.3-1.3-1.3-3.4,0.1-4.7l2.2-2.2c1.3-1.3,3.4-1.3,4.6,0.1L127,29.8c1.3,1.3,1.3,3.4,0,4.7l-22.4,22.3c-1.3,1.3-3.4,1.3-4.7-0.1
	l-2.1-2.1c-1.3-1.3-1.3-3.4,0.1-4.6L110.9,37L110.9,37z"/>
</svg>
