<?xml version="1.0" encoding="UTF-8" standalone="no"?>
<!-- Created with Inkscape (http://www.inkscape.org/) -->

<svg
   width="128"
   height="128"
   viewBox="0 0 128 128"
   version="1.1"
   id="svg1"
   xmlns="http://www.w3.org/2000/svg"
   xmlns:svg="http://www.w3.org/2000/svg">
  <path
     id="arrow_head"
     style="fill:#c0c0c0;fill-opacity:1;stroke:none"
     d="m 8,64 56,56 c 6,6 14,-2 8,-8 L 56,96 C 44,80 44,72 44,64 44,56 44,48 56,32 L 72,16 C 78,10 70,2 64,8" />
  <path
     id="arrow_tail"
     style="fill:#c0c0c0;fill-opacity:1;stroke:none"
     d="m 60,56 h 56 c 2,0 4,2 4,4 v 8 c 0,2 -2,4 -4,4 H 60 c -2,0 -4,-2 -4,-4 v -8 c 0,-2 2,-4 4,-4 z" />
</svg>
