<?xml version="1.0" encoding="UTF-8" standalone="no"?>
<!-- Created with Inkscape (http://www.inkscape.org/) -->

<svg
   width="128"
   height="128"
   viewBox="0 0 128 128"
   version="1.1"
   id="svg1"
   xmlns="http://www.w3.org/2000/svg"
   xmlns:svg="http://www.w3.org/2000/svg">
  <path
     id="left_arrow"
     style="fill:#c0c0c0;fill-opacity:1;stroke:none"
     d="m 8,64 21,21 c 2,2 5,-1 3,-3 l -5,-5 c -4,-6 -4,-11 -4,-13 0,-2 0,-7 4,-13 l 5,-5 c 2,-2 -1,-5 -3,-3" />
  <path
     id="left_tail"
     style="fill:#c0c0c0;fill-opacity:1;stroke:none"
     d="M 42,60 H 30 c -1,0 -2,1 -2,2 v 4 c 0,1 1,2 2,2 h 12 c 1,0 2,-1 2,-2 v -4 c 0,-1 -1,-2 -2,-2 z" />
  <path
     id="brush"
     style="fill:#e59024;fill-opacity:1;stroke:none"
     d="M 76,8 V 96 L 52,120 V 32 Z M 60,36 v 64 l 8,-8 V 28 Z" />
  <path
     id="right_tail"
     style="fill:#c0c0c0;fill-opacity:1;stroke:none"
     d="M 98,60 H 86 c -1,0 -2,1 -2,2 v 4 c 0,1 1,2 2,2 h 12 c 1,0 2,-1 2,-2 v -4 c 0,-1 -1,-2 -2,-2 z" />
  <path
     id="right_arrow"
     style="fill:#c0c0c0;fill-opacity:1;stroke:none"
     d="M 120,64 99,85 c -2,2 -5,-1 -3,-3 l 5,-5 c 4,-6 4,-11 4,-13 0,-2 0,-7 -4,-13 l -5,-5 c -2,-2 1,-5 3,-3" />
</svg>
