<?xml version="1.0" encoding="utf-8"?>
<!-- Generator: Adobe Illustrator 27.2.0, SVG Export Plug-In . SVG Version: 6.00 Build 0)  -->
<svg version="1.1" id="Layer_1" xmlns="http://www.w3.org/2000/svg" xmlns:xlink="http://www.w3.org/1999/xlink" x="0px" y="0px"
	 viewBox="0 0 128 128" enable-background="new 0 0 128 128" xml:space="preserve">
<rect x="29" y="61" fill="#C0C0C0" stroke="#C0C0C0" stroke-width="2" stroke-miterlimit="10" width="14" height="6"/>
<rect x="85" y="61" fill="#C0C0C0" stroke="#C0C0C0" stroke-width="2" stroke-miterlimit="10" width="14" height="6"/>
<polygon fill="none" stroke="#E59024" stroke-width="8" stroke-miterlimit="10" points="56,34 72,20 72.04,94.08 56.04,110.08 "/>
<path fill="#E2136C" d="M32,44"/>
<polygon fill="#C0C0C0" stroke="#C0C0C0" stroke-width="2" stroke-miterlimit="10" points="31.88,50.04 31.88,45.98 25.96,45.98 
	9.96,61.98 9.96,64.04 17.88,64.04 "/>
<polygon fill="#C0C0C0" stroke="#C0C0C0" stroke-width="2" stroke-miterlimit="10" points="31.88,78.04 31.88,82.08 25.96,82.08 
	9.96,66.08 9.96,64.04 17.88,64.04 "/>
<polygon fill="#C0C0C0" stroke="#C0C0C0" stroke-width="2" stroke-miterlimit="10" points="95.98,50.04 95.98,45.98 101.88,45.98 
	117.88,61.98 117.88,64.04 109.98,64.04 "/>
<polygon fill="#C0C0C0" stroke="#C0C0C0" stroke-width="2" stroke-miterlimit="10" points="95.98,78.04 95.98,82.08 101.88,82.08 
	117.88,66.08 117.88,64.04 109.98,64.04 "/>
</svg>
