<?xml version="1.0" encoding="UTF-8" standalone="no"?>
<!-- Created with Inkscape (http://www.inkscape.org/) -->

<svg
   width="128"
   height="128"
   viewBox="0 0 128 128"
   version="1.1"
   id="svg1"
   xmlns="http://www.w3.org/2000/svg"
   xmlns:svg="http://www.w3.org/2000/svg">
  <path
     id="arrow_tail"
     style="fill:#c0c0c0;fill-opacity:1;stroke:none"
     d="M 64,8 C 33,8 8,33 8,64 c 0,30 24,56 54,56 1,0 2,-1 2,-2 v -4 c 0,-1 -1,-2 -2,-2 C 36,112 16,89 16,64 16,38 37,16 64,16 c 14,0 27,6 36,16 1,1 3,1 4,0 l 2,-2 c 1,-1 1,-3 0,-4 C 95,15 80,8 64,8 Z" />
  <path
     id="arrow_head"
     style="fill:#c0c0c0;fill-opacity:1;stroke:none"
     d="M 120,48 H 88 c -3,0 -3,-4 0,-4 h 8 c 8,-2 11,-5 13,-7 2,-2 5,-5 7,-13 v -8 c 0,-3 4,-3 4,0" />
  <path
     id="brush"
     style="fill:#e59024;fill-opacity:1;stroke:none"
     d="m 36,40 v 28 l 72,36 V 76 Z m 8,12 56,28 V 92 L 44,64 Z" />
</svg>
