<?xml version="1.0" encoding="utf-8"?>
<!-- Generator: Adobe Illustrator 27.2.0, SVG Export Plug-In . SVG Version: 6.00 Build 0)  -->
<svg version="1.1" id="Layer_2_00000113330266686457132250000017291230381420366770_"
	 xmlns="http://www.w3.org/2000/svg" xmlns:xlink="http://www.w3.org/1999/xlink" x="0px" y="0px" viewBox="0 0 128 128"
	 enable-background="new 0 0 128 128" xml:space="preserve">
<path fill="none" stroke="#C0C0C0" stroke-width="8" stroke-miterlimit="10" d="M24.5,40.1C33.24,24.6,49.48,15,67,15
	c26.88,0,49,22.58,49,50c0,20.62-12.48,39.2-31.32,46.64"/>
<polygon fill="#C0C0C0" points="40,56 8,56 8,24 11,35 17,45 28,52 "/>
<path fill="none" stroke="#E59024" stroke-width="10" stroke-miterlimit="10" d="M88,50C66.66,61.34,45.34,72.66,24,84
	c0,4.66,0,13.34,0,18c21.34-10.66,42.66-21.34,64-32C88,64.66,88,55.34,88,50z"/>
</svg>
