<?xml version="1.0" encoding="utf-8"?>
<!-- Generator: Adobe Illustrator 27.2.0, SVG Export Plug-In . SVG Version: 6.00 Build 0)  -->
<svg version="1.1" id="Layer_1" xmlns="http://www.w3.org/2000/svg" xmlns:xlink="http://www.w3.org/1999/xlink" x="0px" y="0px"
	 viewBox="0 0 128 128" enable-background="new 0 0 128 128" xml:space="preserve">
<rect x="61.96" y="85.97" fill="#C0C0C0" stroke="#C0C0C0" stroke-width="2" stroke-miterlimit="10" width="6" height="14"/>
<rect x="61.96" y="29.97" fill="#C0C0C0" stroke="#C0C0C0" stroke-width="2" stroke-miterlimit="10" width="6" height="14"/>
<polygon fill="none" stroke="#E59024" stroke-width="8" stroke-miterlimit="10" points="94.96,72.96 108.96,56.96 34.88,56.92 
	18.88,72.92 "/>
<path fill="#E2136C" d="M84.96,96.96"/>
<polygon fill="#C0C0C0" stroke="#C0C0C0" stroke-width="2" stroke-miterlimit="10" points="78.94,97.1 83,97.1 83,103 67,119 
	64.94,119 64.94,111.1 "/>
<polygon fill="#C0C0C0" stroke="#C0C0C0" stroke-width="2" stroke-miterlimit="10" points="50.94,97.1 46.88,97.1 46.88,103 
	62.88,119 64.94,119 64.94,111.1 "/>
<polygon fill="#C0C0C0" stroke="#C0C0C0" stroke-width="2" stroke-miterlimit="10" points="78.94,33 83,33 83,27.08 67,11.08 
	64.94,11.08 64.94,19 "/>
<polygon fill="#C0C0C0" stroke="#C0C0C0" stroke-width="2" stroke-miterlimit="10" points="50.94,33 46.88,33 46.88,27.08 
	62.88,11.08 64.94,11.08 64.94,19 "/>
</svg>
