<?xml version="1.0" encoding="UTF-8" standalone="no"?>
<!-- Created with Inkscape (http://www.inkscape.org/) -->

<svg
   width="128"
   height="128"
   viewBox="0 0 128 128"
   version="1.1"
   id="svg1"
   xmlns="http://www.w3.org/2000/svg"
   xmlns:svg="http://www.w3.org/2000/svg">
  <path
     id="top_arrow"
     style="fill:#c0c0c0;fill-opacity:1;stroke:none"
     d="M 64,8 43,29 c -2,2 1,5 3,3 l 5,-5 c 6,-4 11,-4 13,-4 2,0 7,0 13,4 l 5,5 c 2,2 5,-1 3,-3" />
  <path
     id="top_tail"
     style="fill:#c0c0c0;fill-opacity:1;stroke:none"
     d="M 68,42 V 30 c 0,-1 -1,-2 -2,-2 h -4 c -1,0 -2,1 -2,2 v 12 c 0,1 1,2 2,2 h 4 c 1,0 2,-1 2,-2 z" />
  <path
     id="brush"
     style="fill:#e59024;fill-opacity:1;stroke:none"
     d="M 120,52 H 32 L 8,76 H 96 Z M 92,68 H 28 l 8,-8 h 64 z" />
  <path
     id="bottom_tail"
     style="fill:#c0c0c0;fill-opacity:1;stroke:none"
     d="M 68,98 V 86 c 0,-1 -1,-2 -2,-2 h -4 c -1,0 -2,1 -2,2 v 12 c 0,1 1,2 2,2 h 4 c 1,0 2,-1 2,-2 z" />
  <path
     id="bottom_arrow"
     style="fill:#c0c0c0;fill-opacity:1;stroke:none"
     d="M 64,120 43,99 c -2,-2 1,-5 3,-3 l 5,5 c 6,4 11,4 13,4 2,0 7,0 13,-4 l 5,-5 c 2,-2 5,1 3,3" />
</svg>
