<?xml version="1.0" encoding="utf-8"?>
<!-- Generator: Adobe Illustrator 27.2.0, SVG Export Plug-In . SVG Version: 6.00 Build 0)  -->
<svg version="1.1" id="Layer_2_00000081608923542747741730000001051296871083135405_"
	 xmlns="http://www.w3.org/2000/svg" xmlns:xlink="http://www.w3.org/1999/xlink" x="0px" y="0px" viewBox="0 0 128 128"
	 enable-background="new 0 0 128 128" xml:space="preserve">
<path fill="none" stroke="#C0C0C0" stroke-width="8" stroke-miterlimit="10" d="M99.5,40.1C90.76,24.6,74.52,15,57,15
	C30.12,15,8,37.58,8,65c0,20.62,12.48,39.2,31.32,46.64"/>
<polygon fill="#C0C0C0" points="84,56 116,56 116,24 113,35 107,45 96,52 "/>
<path fill="none" stroke="#E59024" stroke-width="10" stroke-miterlimit="10" d="M36,50c21.34,11.34,42.66,22.66,64,34
	c0,4.66,0,13.34,0,18C78.66,91.34,57.34,80.66,36,70C36,64.66,36,55.34,36,50z"/>
</svg>
