<?xml version="1.0" encoding="UTF-8" standalone="no"?>
<!-- Created with Inkscape (http://www.inkscape.org/) -->

<svg
   width="128"
   height="128"
   viewBox="0 0 128 128"
   version="1.1"
   id="svg1"
   xmlns="http://www.w3.org/2000/svg"
   xmlns:svg="http://www.w3.org/2000/svg">
  <path
     id="source"
     style="fill:#e59024;fill-opacity:1;stroke:none"
     d="M 64,8 C 33,8 8,33 8,64 8,95 33,120 64,120 95,120 120,95 120,64 120,33 95,8 64,8 Z m 0,8 c 26.5,0 48,21.5 48,48 0,26.5 -21.5,48 -48,48 C 37.5,112 16,90.5 16,64 16,37.5 37.5,16 64,16 Z" />
  <path
     id="cap"
     style="fill:#c0c0c0;fill-opacity:1;stroke:none"
     d="M 104,64 C 104,86 86,104 64,104 42,104 24,86 24,64 24,42 42,24 64,24 c 22,0 40,18 40,40 z" />
</svg>
