<?xml version="1.0" encoding="utf-8"?>
<!-- Generator: Adobe Illustrator 27.2.0, SVG Export Plug-In . SVG Version: 6.00 Build 0)  -->
<svg version="1.1" id="Layer_2_00000070117195680548773160000000627272867314862491_"
	 xmlns="http://www.w3.org/2000/svg" xmlns:xlink="http://www.w3.org/1999/xlink" x="0px" y="0px" viewBox="0 0 128 128"
	 enable-background="new 0 0 128 128" xml:space="preserve">
<path fill="#C0C0C0" d="M82.86,26.66H24.04c-7.38,0-13.36,5.98-13.36,13.36v69.28c0,7.38,5.98,13.36,13.36,13.36h58.82
	c7.38,0,13.36-5.98,13.36-13.36V40.02C96.2,32.64,90.22,26.66,82.86,26.66z M85.36,109.52c0,1.36-1.1,2.46-2.46,2.46H23.78
	c-1.36,0-2.46-1.1-2.46-2.46V39.8c0-1.36,1.1-2.46,2.46-2.46h59.1c1.36,0,2.46,1.1,2.46,2.46v69.72H85.36z"/>
<g>
	<path fill="#C0C0C0" d="M104.18,5.44H39.82c-7.26,0-13.14,5.88-13.14,13.14v8.06H37.3v-8.06c0-1.44,1.16-2.6,2.6-2.6h64.2
		c1.44,0,2.6,1.16,2.6,2.6v74.88c0,1.44-1.16,2.6-2.6,2.6h-7.9v10.58h7.98c7.26,0,13.14-5.88,13.14-13.14V18.58
		C117.32,11.34,111.44,5.44,104.18,5.44z"/>
</g>
</svg>
