<?xml version="1.0" encoding="utf-8"?>
<!-- Generator: Adobe Illustrator 27.2.0, SVG Export Plug-In . SVG Version: 6.00 Build 0)  -->
<svg version="1.1" id="Layer_3" xmlns="http://www.w3.org/2000/svg" xmlns:xlink="http://www.w3.org/1999/xlink" x="0px" y="0px"
	 viewBox="0 0 128 128" enable-background="new 0 0 128 128" xml:space="preserve">
<rect x="104" y="28" fill="#C0C0C0" width="16" height="72"/>
<rect x="28" y="8" fill="#C0C0C0" width="72" height="16"/>
<rect x="8" y="28" fill="#C0C0C0" width="16" height="72"/>
<rect x="28" y="104" fill="#C0C0C0" width="72" height="16"/>
<path fill="#D64040" d="M32,32v64h64V32H32z M85.94,76.06c2.74,2.74,2.74,7.16,0,9.9C84.58,87.32,82.8,88,81,88
	s-3.58-0.68-4.94-2.06L64,73.9L51.96,85.94C50.58,87.32,48.8,88,47,88s-3.58-0.68-4.94-2.06c-2.74-2.74-2.74-7.16,0-9.9L54.1,64
	L42.04,51.96c-2.74-2.74-2.74-7.16,0-9.9s7.16-2.74,9.9,0L64,54.1l12.06-12.06c2.74-2.74,7.16-2.74,9.9,0s2.74,7.16,0,9.9L73.9,64
	L85.94,76.06z"/>
</svg>
