<?xml version="1.0" encoding="UTF-8" standalone="no"?>
<!-- Created with Inkscape (http://www.inkscape.org/) -->

<svg
   width="128"
   height="128"
   viewBox="0 0 128 128"
   version="1.1"
   id="svg1"
   xmlns="http://www.w3.org/2000/svg"
   xmlns:svg="http://www.w3.org/2000/svg">
  <path
     id="square"
     style="fill:#e59024;fill-opacity:1;stroke:none"
     d="M 8,8 V 120 H 120 V 8 Z m 8,8 h 96 v 96 H 16 Z" />
  <path
     id="brushes"
     style="fill:#c0c0c0;fill-opacity:1;stroke:none"
     d="m 24,26 v 12 c 0,1 1,2 2,2 h 52 c 1,0 2,-1 2,-2 V 26 c 0,-1 -1,-2 -2,-2 H 26 c -1,0 -2,1 -2,2 z m 64,0 v 52 c 0,1 1,2 2,2 h 12 c 1,0 2,-1 2,-2 V 26 c 0,-1 -1,-2 -2,-2 H 90 c -1,0 -2,1 -2,2 z M 24,50 v 52 c 0,1 1,2 2,2 h 12 c 1,0 2,-1 2,-2 V 50 c 0,-1 -1,-2 -2,-2 H 26 c -1,0 -2,1 -2,2 z m 24,40 v 12 c 0,1 1,2 2,2 h 52 c 1,0 2,-1 2,-2 V 90 c 0,-1 -1,-2 -2,-2 H 50 c -1,0 -2,1 -2,2 z" />
</svg>
