<?xml version="1.0" encoding="utf-8"?>
<!-- Generator: Adobe Illustrator 27.2.0, SVG Export Plug-In . SVG Version: 6.00 Build 0)  -->
<svg version="1.1" id="Layer_3" xmlns="http://www.w3.org/2000/svg" xmlns:xlink="http://www.w3.org/1999/xlink" x="0px" y="0px"
	 viewBox="0 0 128 128" enable-background="new 0 0 128 128" xml:space="preserve">
<polyline fill="#C0C0C0" points="24,80 24,48 6,64 24,80 "/>
<polyline fill="#C0C0C0" points="104,80 104,48 122,64 104,80 "/>
<polyline fill="#C0C0C0" points="48,24 80,24 64,6 48,24 "/>
<polyline fill="#C0C0C0" points="48,104 80,104 64,122 48,104 "/>
<polygon fill="#E59024" points="16,44 16,16 44,16 34,24 24,24 24,34 "/>
<polygon fill="#E59024" points="112,44 112,16 84,16 94,24 104,24 104,34 "/>
<polygon fill="#E59024" points="16,84 16,112 44,112 34,104 24,104 24,94 "/>
<polygon fill="#E59024" points="112,84 112,112 84,112 94,104 104,104 104,94 "/>
</svg>
