<?xml version="1.0" encoding="UTF-8" standalone="no"?>
<!-- Created with Inkscape (http://www.inkscape.org/) -->

<svg
   width="128"
   height="128"
   viewBox="0 0 128 128"
   version="1.1"
   id="svg1"
   xmlns="http://www.w3.org/2000/svg"
   xmlns:svg="http://www.w3.org/2000/svg">
  <path
     id="brushes"
     style="fill:#c0c0c0;fill-opacity:1;stroke:none"
     d="m 28,10 v 12 c 0,1 1,2 2,2 h 68 c 1,0 2,-1 2,-2 V 10 C 100,9 99,8 98,8 H 30 c -1,0 -2,1 -2,2 z M 8,30 v 68 c 0,1 1,2 2,2 h 12 c 1,0 2,-1 2,-2 V 30 c 0,-1 -1,-2 -2,-2 H 10 c -1,0 -2,1 -2,2 z m 110,-2 h -12 c -1,0 -2,1 -2,2 v 68 c 0,1 1,2 2,2 h 12 c 1,0 2,-1 2,-2 V 30 c 0,-1 -1,-2 -2,-2 z m -90,78 v 12 c 0,1 1,2 2,2 h 68 c 1,0 2,-1 2,-2 v -12 c 0,-1 -1,-2 -2,-2 H 30 c -1,0 -2,1 -2,2 z" />
  <path
     id="inner_x"
     style="fill:#d64040;fill-opacity:1;stroke:none"
     d="m 32,36 v 56 c 0,2 2,4 4,4 h 56 c 2,0 4,-2 4,-4 V 36 c 0,-2 -2,-4 -4,-4 H 36 c -2,0 -4,2 -4,4 z m 18,6 14,14 14,-14 c 2,-2 6,-2 8,0 2,2 2,6 0,8 L 72,64 86,78 c 2,2 2,6 0,8 -2,2 -6,2 -8,0 L 64,72 50,86 c -2,2 -6,2 -8,0 -2,-2 -2,-6 0,-8 L 56,64 42,50 c -2,-2 -2,-6 0,-8 2,-2 6,-2 8,0 z" />
</svg>
