<?xml version="1.0" encoding="UTF-8" standalone="no"?>
<!-- Created with Inkscape (http://www.inkscape.org/) -->

<svg
   width="128"
   height="128"
   viewBox="0 0 128 128"
   version="1.1"
   id="svg1"
   xmlns="http://www.w3.org/2000/svg"
   xmlns:svg="http://www.w3.org/2000/svg">
  <path
     id="x_shape"
     style="fill:#d64040;fill-opacity:1;stroke:none"
     d="m 16,28 36,36 -36,36 c -1,1 -1,3 0,4 l 8,8 c 1,1 3,1 4,0 l 36,-36 36,36 c 1,1 3,1 4,0 l 8,-8 c 1,-1 1,-3 0,-4 L 76,64 112,28 c 1,-1 1,-3 0,-4 l -8,-8 c -1,-1 -3,-1 -4,0 L 64,52 28,16 c -1,-1 -3,-1 -4,0 l -8,8 c -1,1 -1,3 0,4 z" />
</svg>
