<?xml version="1.0" encoding="utf-8"?>
<!-- Generator: Adobe Illustrator 27.2.0, SVG Export Plug-In . SVG Version: 6.00 Build 0)  -->
<svg version="1.1" id="Capa_1" xmlns="http://www.w3.org/2000/svg" xmlns:xlink="http://www.w3.org/1999/xlink" x="0px" y="0px"
	 viewBox="0 0 128 128" style="enable-background:new 0 0 128 128;" xml:space="preserve">
<style type="text/css">
	.st0{fill:#D64040;}
</style>
<g>
	<g id="cross">
		<g>
			<path class="st0" d="M78.3,64L109,33.3c4-4,4-10.4,0-14.3c-4-4-10.4-4-14.3,0L64,49.7L33.3,19c-4-4-10.4-4-14.3,0s-4,10.4,0,14.3
				L49.7,64L19,94.7c-4,4-4,10.4,0,14.3c4,4,10.4,4,14.3,0L64,78.4L94.7,109c4,4,10.4,4,14.3,0c4-4,4-10.4,0-14.3L78.3,64z"/>
		</g>
	</g>
</g>
</svg>
