<?xml version="1.0" encoding="UTF-8" standalone="no"?>
<!-- Created with Inkscape (http://www.inkscape.org/) -->

<svg
   width="128"
   height="128"
   viewBox="0 0 128 128"
   version="1.1"
   id="svg1"
   xmlns="http://www.w3.org/2000/svg"
   xmlns:svg="http://www.w3.org/2000/svg">
  <path
     id="circles"
     style="fill:#c0c0c0;fill-opacity:1;stroke:none"
     d="m 24,52 c -6.62,0 -12,5.38 -12,12 0,6.62 5.38,12 12,12 6.62,0 12,-5.38 12,-12 0,-6.62 -5.38,-12 -12,-12 z m 40,0 c -6.62,0 -12,5.38 -12,12 0,6.62 5.38,12 12,12 6.62,0 12,-5.38 12,-12 0,-6.62 -5.38,-12 -12,-12 z m 40,0 c -6.62,0 -12,5.38 -12,12 0,6.62 5.38,12 12,12 6.62,0 12,-5.38 12,-12 0,-6.62 -5.38,-12 -12,-12 z" />
</svg>
