<?xml version="1.0" encoding="UTF-8" standalone="no"?>
<!-- Created with Inkscape (http://www.inkscape.org/) -->

<svg
   width="128"
   height="128"
   viewBox="0 0 128 128"
   version="1.1"
   id="svg1"
   xmlns="http://www.w3.org/2000/svg"
   xmlns:svg="http://www.w3.org/2000/svg">
  <path
     id="eye"
     style="fill:#c0c0c0;fill-opacity:1;stroke:none"
     d="m 8,48 c 0,4 28,40 56,40 28,0 56,-36 56,-40 H 104 C 104,51 86,80 64,80 42,80 24,51 24,48 Z" />
  <path
     id="lash1"
     style="fill:#c0c0c0;fill-opacity:1;stroke:none"
     d="m 19.5,75.75 -8,9 c -0.75,0.75 -0.5,2 0.25,2.75 l 3,2.5 c 0.75,0.75 2,0.75 2.75,0 l 8,-9 C 26.25,80.24 26,78.75 25.25,78 L 22.5,75.5 c -0.75,-0.75 -2.25,-0.5 -3,0.25 z" />
  <path
     id="lash2"
     style="fill:#c0c0c0;fill-opacity:1;stroke:none"
     d="m 45.5,91 c -1,-0.25 -2.25,0.5 -2.5,1.5 L 40,104 c -0.25,1 0.5,2.25 1.5,2.5 l 4,1 c 1,0.25 2.25,-0.5 2.5,-1.5 l 3,-11.5 c 0.25,-1 -0.5,-2.25 -1.5,-2.5 z" />
  <path
     id="lash3"
     style="fill:#c0c0c0;fill-opacity:1;stroke:none"
     d="m 82.5,91 c 1,-0.25 2.25,0.5 2.5,1.5 l 3,11.5 c 0.25,1 -0.5,2.25 -1.5,2.5 l -4,1 C 81.5,107.75 80.25,107 80,106 L 77,94.5 c -0.25,-1 0.5,-2.25 1.5,-2.5 z" />
  <path
     id="lash4"
     style="fill:#c0c0c0;fill-opacity:1;stroke:none"
     d="m 105.5,75.5 -2.75,2.5 c -0.75,0.75 -1,2.25 -0.25,3 l 8,9 c 0.75,0.75 2,0.75 2.75,0 l 3,-2.5 c 0.75,-0.75 1,-2 0.25,-2.75 l -8,-9 c -0.75,-0.75 -2.26,-1 -3,-0.25 z" />
</svg>
