<?xml version="1.0" encoding="utf-8"?>
<!-- Generator: Adobe Illustrator 27.2.0, SVG Export Plug-In . SVG Version: 6.00 Build 0)  -->
<svg version="1.1" id="Layer_1" xmlns:serif="http://www.serif.com/"
	 xmlns="http://www.w3.org/2000/svg" xmlns:xlink="http://www.w3.org/1999/xlink" x="0px" y="0px" viewBox="0 0 128 128"
	 enable-background="new 0 0 128 128" xml:space="preserve">
<path fill-rule="evenodd" clip-rule="evenodd" fill="#C0C0C0" d="M20.44,75.14l-8.62,8.62c-2.34,2.34-2.34,6.14,0,8.48
	c2.34,2.34,6.14,2.34,8.48,0l10.66-10.68c7.6,3.94,16.76,7.22,27.1,8.16V104c0,3.32,2.68,6,6,6s6-2.68,6-6V89.72
	c8.58-0.8,16.36-3.22,23.1-6.28l12.8,12.8c2.34,2.34,6.14,2.34,8.48,0c2.34-2.34,2.34-6.14,0-8.48l-10.32-10.32
	c10.36-6.66,16.36-13.48,16.36-13.48c2.18-2.48,1.94-6.28-0.54-8.46s-6.28-1.94-8.46,0.54c0,0-19.26,21.96-47.5,21.96
	S16.5,56.04,16.5,56.04c-2.18-2.48-5.98-2.74-8.46-0.54c-2.48,2.18-2.74,5.98-0.54,8.46C7.5,63.96,12.2,69.3,20.44,75.14z"/>
<g id="Icon">
</g>
</svg>
