<?xml version="1.0" encoding="utf-8"?>
<!-- Generator: Adobe Illustrator 27.2.0, SVG Export Plug-In . SVG Version: 6.00 Build 0)  -->
<svg version="1.1" id="Capa_1" xmlns="http://www.w3.org/2000/svg" xmlns:xlink="http://www.w3.org/1999/xlink" x="0px" y="0px"
	 viewBox="0 0 128 128" enable-background="new 0 0 128 128" xml:space="preserve">
<g>
	<path fill="#C0C0C0" d="M126.57,59.07c-6.67-10.91-15.63-19.67-26.89-26.29S76.53,22.85,64,22.85s-24.42,3.31-35.68,9.93
		C17.06,39.4,8.1,48.16,1.43,59.07C0.48,60.74,0,62.38,0,64s0.48,3.26,1.43,4.93C8.1,79.83,17.06,88.59,28.33,95.21
		c11.26,6.62,23.15,9.93,35.68,9.93s24.41-3.3,35.68-9.89c11.26-6.59,20.23-15.37,26.89-26.32c0.95-1.67,1.43-3.31,1.43-4.93
		C128,62.38,127.52,60.74,126.57,59.07z M48.68,39.53c4.26-4.26,9.37-6.39,15.32-6.39c0.95,0,1.76,0.34,2.43,1
		c0.67,0.67,1,1.48,1,2.43c0,0.95-0.34,1.76-1,2.43c-0.67,0.67-1.48,1-2.43,1c-4.1,0-7.6,1.45-10.5,4.36
		c-2.9,2.91-4.36,6.4-4.36,10.5c0,0.95-0.34,1.76-1,2.43c-0.67,0.67-1.48,1-2.43,1c-0.95,0-1.76-0.33-2.43-1
		c-0.67-0.67-1-1.48-1-2.43C42.29,48.9,44.42,43.8,48.68,39.53z M95.04,87.32C85.49,93.1,75.15,96,64,96s-21.49-2.89-31.03-8.68
		C23.42,81.53,15.48,73.76,9.15,64c7.24-11.24,16.31-19.64,27.21-25.21c-2.9,4.95-4.36,10.31-4.36,16.07
		c0,8.81,3.13,16.34,9.39,22.61S55.2,86.85,64,86.85s16.34-3.13,22.61-9.39S96,63.66,96,54.86c0-5.76-1.45-11.12-4.36-16.07
		c10.9,5.57,19.98,13.98,27.21,25.21C112.53,73.76,104.59,81.53,95.04,87.32z"/>
</g>
</svg>
