<?xml version="1.0" encoding="UTF-8" standalone="no"?>
<!-- Created with Inkscape (http://www.inkscape.org/) -->

<svg
   width="128"
   height="128"
   viewBox="0 0 128 128"
   version="1.1"
   id="svg1"
   xmlns="http://www.w3.org/2000/svg"
   xmlns:svg="http://www.w3.org/2000/svg">
  <path
     id="dashed_square"
     style="fill:#c0c0c0;fill-opacity:1;stroke:none"
     d="m 8,8 v 16 h 8 v -8 h 8 V 8 Z m 32,0 v 8 H 56 V 8 Z m 32,0 v 8 H 88 V 8 Z m 32,0 v 8 h 8 v 8 h 8 V 8 Z M 8,40 v 16 h 8 V 40 Z m 104,0 v 16 h 8 V 40 Z M 8,72 v 16 h 8 V 72 Z m 104,0 v 16 h 8 V 72 Z M 8,104 v 16 h 16 v -8 h -8 v -8 z m 104,0 v 8 h -8 v 8 h 16 v -16 z m -72,8 v 8 h 16 v -8 z m 32,0 v 8 h 16 v -8 z" />
  <path
     id="brushes"
     style="fill:#00aaff;fill-opacity:1;stroke:none"
     d="M 44,28 V 56 H 28 v 36 h 36 v 8 h 36 V 64 H 80 V 28 Z m 8,8 H 72 V 56 H 52 Z M 36,64 H 56 V 84 H 36 Z m 36,8 H 92 V 92 H 72 Z" />
</svg>
