<?xml version="1.0" encoding="utf-8"?>
<!-- Generator: Adobe Illustrator 27.2.0, SVG Export Plug-In . SVG Version: 6.00 Build 0)  -->
<svg version="1.1" id="Layer_3" xmlns="http://www.w3.org/2000/svg" xmlns:xlink="http://www.w3.org/1999/xlink" x="0px" y="0px"
	 viewBox="0 0 128 128" enable-background="new 0 0 128 128" xml:space="preserve">
<line fill="none" stroke="#C0C0C0" stroke-width="8" stroke-miterlimit="10" x1="40" y1="116" x2="56" y2="116"/>
<line fill="none" stroke="#C0C0C0" stroke-width="8" stroke-miterlimit="10" x1="72" y1="116" x2="88" y2="116"/>
<line fill="none" stroke="#C0C0C0" stroke-width="8" stroke-miterlimit="10" x1="116" y1="88" x2="116" y2="72"/>
<line fill="none" stroke="#C0C0C0" stroke-width="8" stroke-miterlimit="10" x1="116" y1="56" x2="116" y2="40"/>
<line fill="none" stroke="#C0C0C0" stroke-width="8" stroke-miterlimit="10" x1="88" y1="12" x2="72" y2="12"/>
<line fill="none" stroke="#C0C0C0" stroke-width="8" stroke-miterlimit="10" x1="56" y1="12" x2="40" y2="12"/>
<line fill="none" stroke="#C0C0C0" stroke-width="8" stroke-miterlimit="10" x1="12" y1="40" x2="12" y2="56"/>
<line fill="none" stroke="#C0C0C0" stroke-width="8" stroke-miterlimit="10" x1="12" y1="72" x2="12" y2="88"/>
<polyline fill="none" stroke="#C0C0C0" stroke-width="8" stroke-miterlimit="10" points="24,116 12,116 12,104 "/>
<polyline fill="none" stroke="#C0C0C0" stroke-width="8" stroke-miterlimit="10" points="24,12 12,12 12,24 "/>
<polyline fill="none" stroke="#C0C0C0" stroke-width="8" stroke-miterlimit="10" points="104,12 116,12 116,24 "/>
<polyline fill="none" stroke="#C0C0C0" stroke-width="8" stroke-miterlimit="10" points="116,104 116,116 104,116 "/>
<rect x="68" y="68" fill="none" stroke="#00AAFF" stroke-width="8" stroke-miterlimit="10" width="28" height="28"/>
<rect x="48" y="32" fill="none" stroke="#00AAFF" stroke-width="8" stroke-miterlimit="10" width="28" height="28"/>
<rect x="32" y="60" fill="none" stroke="#00AAFF" stroke-width="8" stroke-miterlimit="10" width="28" height="28"/>
</svg>
