<?xml version="1.0" encoding="utf-8"?>
<!-- Generator: Adobe Illustrator 27.2.0, SVG Export Plug-In . SVG Version: 6.00 Build 0)  -->
<svg version="1.1"
	 id="svg2" xmlns:svg="http://www.w3.org/2000/svg" xmlns:dc="http://purl.org/dc/elements/1.1/" xmlns:cc="http://creativecommons.org/ns#" xmlns:inkscape="http://www.inkscape.org/namespaces/inkscape" xmlns:rdf="http://www.w3.org/1999/02/22-rdf-syntax-ns#" xmlns:sodipodi="http://sodipodi.sourceforge.net/DTD/sodipodi-0.dtd"
	 xmlns="http://www.w3.org/2000/svg" xmlns:xlink="http://www.w3.org/1999/xlink" x="0px" y="0px" viewBox="0 0 128 128"
	 enable-background="new 0 0 128 128" xml:space="preserve">
<sodipodi:namedview  bordercolor="#666666" borderopacity="1" gridtolerance="10" guidetolerance="10" id="namedview30" inkscape:current-layer="svg2" inkscape:cx="455.16656" inkscape:cy="64.037634" inkscape:pageopacity="0" inkscape:pageshadow="2" inkscape:window-height="876" inkscape:window-maximized="1" inkscape:window-width="1535" inkscape:window-x="65" inkscape:window-y="24" inkscape:zoom="0.26339286" objecttolerance="10" pagecolor="#ffffff" showgrid="false">
	</sodipodi:namedview>
<path id="path6596" inkscape:connector-curvature="0" sodipodi:nodetypes="cccccccccccccccsscccccccccsccscccssccsc" fill="#C0C0C0" d="
	M71.44,29.18C69,28.91,66.52,28.76,64,28.72c-10.99,0.05-22.38,2.72-33.16,7.84c-8.01,3.96-15.8,9.55-22.58,16.44
	C4.93,56.53,0.69,61.63,0,67.07c0.08,4.71,5.14,10.52,8.26,14.05c6.35,6.63,13.95,12.05,22.58,16.44c0.29,0.14,0.59,0.28,0.88,0.42
	l-8.01,13.98l10.88,6.43L93.41,16L82.94,9.6L71.44,29.18z M96.27,36.16l-7.99,13.85c3.68,4.78,5.86,10.67,5.86,17.05
	c0,15.92-13.49,28.83-30.15,28.83c-0.72,0-1.42-0.08-2.12-0.12l-5.29,9.16c2.44,0.26,4.91,0.45,7.42,0.48
	c11-0.05,22.39-2.75,33.16-7.84c8.01-3.96,15.81-9.55,22.59-16.44c3.33-3.52,7.57-8.62,8.26-14.05c-0.08-4.71-5.14-10.52-8.26-14.05
	c-6.35-6.63-13.96-12.05-22.59-16.44C96.87,36.42,96.57,36.3,96.27,36.16L96.27,36.16z M63.99,38.24c0.73,0,1.45,0.03,2.17,0.08
	l-6.2,10.73c-8.69,1.76-15.22,9.16-15.22,18.02c0,2.22,0.41,4.35,1.16,6.33c0,0,0,0.01,0,0.01L39.7,84.15
	c-3.69-4.78-5.86-10.69-5.86-17.09C33.84,51.14,47.34,38.24,63.99,38.24L63.99,38.24z M82.02,60.85L68.05,85.04
	c8.65-1.8,15.13-9.16,15.13-17.98C83.18,64.87,82.74,62.8,82.02,60.85L82.02,60.85z"/>
</svg>
