<?xml version="1.0" encoding="UTF-8" standalone="no"?>
<!-- Created with Inkscape (http://www.inkscape.org/) -->

<svg
   width="128"
   height="128"
   viewBox="0 0 128 128"
   version="1.1"
   id="svg1"
   xmlns="http://www.w3.org/2000/svg"
   xmlns:svg="http://www.w3.org/2000/svg">
  <path
     id="eye"
     style="fill:#c0c0c0;fill-opacity:1;stroke:none"
     d="M 64,24 C 36,24 8,60 8,64 8,66 19,80 33,91 l 9,-9 C 38,77 36,70 36,64 36,48 48,36 64,36 c 7,0 13,2 18,6 l 9,-9 C 83,28 73,24 64,24 Z M 99,39 88,50 c 2,4 4,9.04 4,14 0,16 -12,28 -28,28 -5,0 -9,-1 -14,-4 l -9,9 c 7,4 15,7 23,7 28,0 56,-36 56,-40 0,-2 -9,-15 -21,-25 z m -35,9 c -9,0 -16,7 -16,16 0,3 1,6 3,9 L 73,51 C 70,49 67,48 64,48 Z M 79,59 59,79 c 2,1 3,1 5,1 9,0 16,-7 16,-16 0,-2 0,-3 -1,-5 z" />
  <path
     id="cross_line"
     style="fill:#c0c0c0;fill-opacity:1;stroke:none"
     d="m 106,12 6,6 -94,94 -6,-6 z" />
</svg>
