<?xml version="1.0" encoding="UTF-8" standalone="no"?>
<!-- Created with Inkscape (http://www.inkscape.org/) -->

<svg
   width="128"
   height="128"
   viewBox="0 0 128 128"
   version="1.1"
   id="svg1"
   xmlns="http://www.w3.org/2000/svg"
   xmlns:svg="http://www.w3.org/2000/svg">
  <path
     id="vertex"
     style="fill:#4cd94c;fill-opacity:1;stroke:none"
     d="m 12,8 h 16 c 2,0 4,2 4,4 v 16 c 0,2 -2,4 -4,4 H 12 C 10,32 8,30 8,28 V 12 c 0,-2 2,-4 4,-4 z" />
  <path
     id="patch_shape"
     style="fill:#c0c0c0;fill-opacity:1;stroke:none"
     d="M 40,16 V 48 C 40,66 8,64 8,88 v 32 H 88 V 88 C 88,70 120,72 120,48 V 16 Z m 8,8 h 64 v 24 c 0,18 -32,16 -32,40 v 24 H 16 V 88 C 16,70 48,72 48,48 Z" />
</svg>
