<?xml version="1.0" encoding="UTF-8" standalone="no"?>
<!-- Created with Inkscape (http://www.inkscape.org/) -->

<svg
   width="128"
   height="128"
   viewBox="0 0 128 128"
   version="1.1"
   id="svg1"
   xmlns="http://www.w3.org/2000/svg"
   xmlns:svg="http://www.w3.org/2000/svg">
  <path
     id="cube"
     style="fill:#3eb33e;fill-opacity:1;stroke:none"
     d="m 12,12 v 80 l 24,24 h 36 v -8 H 44 V 44 h 64 v 28 h 8 V 36 L 92,12 Z m 14,8 h 62 l 16,16 H 42 Z m -6,6 16,16 v 62 L 20,88 Z" />
  <path
     id="arrow_tail"
     style="fill:#3eb33e;fill-opacity:1;stroke:none"
     d="m 77,75 -2,2 c -1,1 -1,3 0,4 l 23,23 c 1,1 3,1 4,0 l 2,-2 c 1,-1 1,-3 0,-4 L 81,75 c -1,-1 -3,-1 -4,0 z" />
  <path
     id="arrow_head"
     style="fill:#3eb33e;fill-opacity:1;stroke:none"
     d="M 120,120 H 88 c -3,0 -3,-4 0,-4 h 8 c 8,-2 11,-5 13,-7 2,-2 5,-5 7,-13 v -8 c 0,-3 4,-3 4,0" />
</svg>
