<?xml version="1.0" encoding="utf-8"?>
<!-- Generator: Adobe Illustrator 27.2.0, SVG Export Plug-In . SVG Version: 6.00 Build 0)  -->
<svg version="1.1" id="Layer_3" xmlns="http://www.w3.org/2000/svg" xmlns:xlink="http://www.w3.org/1999/xlink" x="0px" y="0px"
	 viewBox="0 0 128 128" enable-background="new 0 0 128 128" xml:space="preserve">
<path fill="none" stroke="#C0C0C0" stroke-width="8" stroke-miterlimit="10" d="M12,40c0-9.34,0-18.66,0-28c9.34,0,18.66,0,28,0"/>
<path fill="none" stroke="#C0C0C0" stroke-width="8" stroke-miterlimit="10" d="M88,12c9.34,0,18.66,0,28,0c0,9.34,0,18.66,0,28"/>
<path fill="none" stroke="#C0C0C0" stroke-width="8" stroke-miterlimit="10" d="M116,88c0,9.34,0,18.66,0,28c-9.34,0-18.66,0-28,0"
	/>
<path fill="none" stroke="#C0C0C0" stroke-width="8" stroke-miterlimit="10" d="M40,116c-9.34,0-18.66,0-28,0c0-9.34,0-18.66,0-28"
	/>
<rect x="28" y="28" fill="none" stroke="#E59024" stroke-width="8" stroke-miterlimit="10" width="72" height="72"/>
</svg>
