<?xml version="1.0" encoding="UTF-8" standalone="no"?>
<!-- Created with Inkscape (http://www.inkscape.org/) -->

<svg
   width="128"
   height="128"
   viewBox="0 0 128 128"
   version="1.1"
   id="svg1"
   xmlns="http://www.w3.org/2000/svg"
   xmlns:svg="http://www.w3.org/2000/svg">
  <path
     id="shape"
     style="fill:#d64040;fill-opacity:1;stroke:none"
     d="M 64,8 C 32,8 8,32 8,64 8,96 32,120 64,120 96,120 120,96 120,64 120,32 96,8 64,8 Z M 96,44 76,64 96,84 c 8,8 -4,20 -12,12 L 64,76 44,96 C 36,104 24,92 32,84 L 52,64 32,44 C 24,36 36,24 44,32 L 64,52 84,32 c 8,-8 20,4 12,12 z" />
</svg>
