<?xml version="1.0" encoding="utf-8"?>
<!-- Generator: Adobe Illustrator 27.2.0, SVG Export Plug-In . SVG Version: 6.00 Build 0)  -->
<svg version="1.1" id="Layer_3" xmlns="http://www.w3.org/2000/svg" xmlns:xlink="http://www.w3.org/1999/xlink" x="0px" y="0px"
	 viewBox="0 0 128 128" enable-background="new 0 0 128 128" xml:space="preserve">
<path fill="#D64040" d="M64,8C33.08,8,8,33.08,8,64s25.08,56,56,56s56-25.08,56-56S94.92,8,64,8z M95.86,83.14
	c1,4.74,1.84,9.96,2.14,14.86c-4.92-0.3-10.12-1.14-14.86-2.14C79.28,92,70.62,83.34,64,76.72c-6.6,6.6-15.22,15.22-19.14,19.14
	C40.12,96.86,34.9,97.7,30,98c0.3-4.92,1.14-10.12,2.14-14.86C36,79.28,44.66,70.62,51.28,64c-6.56-6.58-14.94-15.02-19.2-19.06
	c-1.04-4.74-1.86-10-2.06-14.94c4.92,0.2,10.2,1.02,14.94,2.06c3.98,4.22,12.48,12.64,19.08,19.2c6.58-6.56,15-14.92,19.06-19.2
	c4.74-1.04,10-1.86,14.94-2.06c-0.2,4.92-1.02,10.2-2.06,14.94c-4.22,3.98-12.64,12.48-19.2,19.08
	C83.34,70.6,91.96,79.22,95.86,83.14z"/>
</svg>
