<?xml version="1.0" encoding="utf-8"?>
<!-- Generator: Adobe Illustrator 27.2.0, SVG Export Plug-In . SVG Version: 6.00 Build 0)  -->
<svg version="1.1" id="Layer_1" xmlns="http://www.w3.org/2000/svg" xmlns:xlink="http://www.w3.org/1999/xlink" x="0px" y="0px"
	 viewBox="0 0 128 128" enable-background="new 0 0 128 128" xml:space="preserve">
<path fill="none" stroke="#C0C0C0" stroke-width="8" stroke-miterlimit="10" d="M103.9,119.74c9.94,0,18.36-7.68,19.18-17.5
	c0.86-10.46-7.02-19.68-17.6-20.54l-2.5-0.2l-0.82-2.34c-3.88-11-13.96-18.94-25.66-20.22c-1.16-0.12-2.3-0.18-3.44-0.18
	c-15.68,0-28.82,11.66-30.54,27.12l-0.38,3.4H38.7c-8.7,0-15.6,6.84-15.6,15.24s6.9,15.24,15.38,15.24h65.42V119.74z"/>
<path fill="#F2D230" d="M46.18,20.68c0,2.1,1.72,3.8,3.84,3.8s3.84-1.7,3.84-3.8v-7.62c0-2.1-1.72-3.8-3.84-3.8s-3.84,1.7-3.84,3.8
	V20.68z M22.84,33.42L22.84,33.42c1.5,1.48,3.94,1.48,5.44,0s1.5-3.9,0-5.4l-5.44-5.38c-0.04-0.04-0.06-0.06-0.1-0.1
	c-1.52-1.46-3.96-1.42-5.44,0.1s-1.44,3.92,0.1,5.38L22.84,33.42z M71.8,28.04c-1.5,1.48-1.5,3.9,0,5.4c1.5,1.48,3.94,1.48,5.44,0
	l5.44-5.4c1.44-1.48,1.44-3.82,0-5.3c-1.48-1.52-3.92-1.56-5.44-0.1C77.24,22.64,71.8,28.04,71.8,28.04z M71.8,47.38
	c-1.28-3.58-3.44-6.8-6.3-9.34c-9.46-8.46-24.06-7.74-32.6,1.64s-7.8,23.82,1.66,32.28c1.1-2.4,2.44-4.7,3.98-6.84
	c-0.94-1.06-1.74-2.24-2.36-3.5c-3.7-7.58-0.48-16.68,7.18-20.34s16.86-0.48,20.54,7.1C66.46,47.8,69.1,47.46,71.8,47.38z
	 M28.28,76.5c-1.5-1.48-3.94-1.48-5.44,0.02l-5.44,5.4c-0.1,0.08-0.2,0.18-0.28,0.28c-1.34,1.64-1.08,4.04,0.56,5.36
	c3.06-3.68,7.1-6.52,11.72-8.16C29.46,78.32,29.04,77.26,28.28,76.5z M7.72,51.16c-2.12,0-3.84,1.7-3.84,3.8s1.72,3.8,3.84,3.8h7.7
	c2.12,0,3.84-1.7,3.84-3.8s-1.72-3.8-3.84-3.8H7.72z"/>
</svg>
