<?xml version="1.0" encoding="UTF-8" standalone="no"?>
<!-- Created with Inkscape (http://www.inkscape.org/) -->

<svg
   width="128"
   height="128"
   viewBox="0 0 128 128"
   version="1.1"
   id="svg1"
   xmlns="http://www.w3.org/2000/svg"
   xmlns:svg="http://www.w3.org/2000/svg">
  <path
     id="sun_rays"
     style="fill:#f2d230;fill-opacity:1;stroke:none"
     d="m 40,8 c -1,0 -2,1 -2,2 v 8 c 0,1 1,2 2,2 h 4 c 1,0 2,-1 2,-2 V 10 C 46,9 45,8 44,8 Z m -25,8 -3,3 c -1,1 -1,2 0,3 l 6,6 c 1,1 2,1 3,0 l 3,-3 c 1,-1 1,-2 0,-3 l -6,-6 c -1,-1 -2,-1 -3,0 z m 51,0 -6,6 c -1,1 -1,2 0,3 l 3,3 c 1,1 2,1 3,0 l 6,-6 c 1,-1 1,-2 0,-3 l -3,-3 c -1,-1 -2,-1 -3,0 z M 6,42 c -1,0 -2,1 -2,2 v 4 c 0,1 1,2 2,2 h 8 c 1,0 2,-1 2,-2 v -4 c 0,-1 -1,-2 -2,-2 z m 12,22 -6,6 c -1,1 -1,2 0,3 l 3,3 c 1,1 2,1 3,0 l 6,-6 c 1,-1 1,-2 0,-3 l -3,-3 c -1,-1 -2,-1 -3,0 z" />
  <path
     id="sun"
     style="fill:#f2d230;fill-opacity:1;stroke:none"
     d="m 42,24 c -12,0 -22,10 -22,22 0,10 6,18 15,21 0,-4 1,-6 2,-8 -5,-2 -9,-7 -9,-13 0,-8 6,-14 14,-14 6,0 11,4 13,10 2,-1 4,-2 8,-2 C 60,30 52,24 42,24 Z" />
  <path
     id="cloud_fill"
     style="fill:#c0c0c0;fill-opacity:0.35;stroke:none"
     d="M 68,44 C 51,44 37,60 40,76 27,74 16,85 16,98 c 0,6 0,9 6,16 6,6 16,6 24,6 h 48 c 18,0 26,-14 26,-28 0,-3 -2,-10 -6,-15 C 110,72 101,68 96,68 94,54 82,44 68,44 Z" />
  <path
     id="cloud"
     style="fill:#c0c0c0;fill-opacity:1;stroke:none"
     d="M 68,44 C 51,44 37,60 40,76 27,74 16,85 16,98 c 0,6 0,9 6,16 6,6 16,6 24,6 h 48 c 18,0 26,-14 26,-28 0,-3 -2,-10 -6,-15 C 110,72 101,68 96,68 94,54 82,44 68,44 Z m 0,8 c 11,0 20,9 20,20 l -1,5 c 13,-4 23,4 25,15 0,12 -9,20 -21,20 H 38 C 23,112 19,90 33,85 36,84 46,84 52,84 51,83 50,81 49,78 45,66 54,52 68,52 Z" />
</svg>
