<?xml version="1.0" encoding="UTF-8" standalone="no"?>
<!-- Created with Inkscape (http://www.inkscape.org/) -->

<svg
   width="128"
   height="128"
   viewBox="0 0 128 128"
   version="1.1"
   id="svg1"
   xmlns="http://www.w3.org/2000/svg"
   xmlns:svg="http://www.w3.org/2000/svg">
  <path
     id="meridian1"
     style="fill:#c0c0c0;fill-opacity:0.50;stroke:none"
     d="M 64,8 C 48.5,8 40,33 40,64 c 0,31 8.5,56 24,56 v -8 C 53,112 48,90.5 48,64 48,37.5 53,16 64,16 Z" />
  <path
     id="parallel1"
     style="fill:#c0c0c0;fill-opacity:0.50;stroke:none"
     d="M 120,64 C 120,48.5 95,40 64,40 33,40 8,48.5 8,64 h 8 c 0,-11 21.5,-16 48,-16 26.5,0 48,5 48,16 z" />
  <path
     id="meridian2"
     style="fill:#c0c0c0;fill-opacity:1;stroke:none"
     d="m 64,8 v 8 c 11,0 16,21.5 16,48 0,26.5 -5,48 -16,48 v 8 C 79.5,120 88,95 88,64 88,33 79.5,8 64,8 Z" />
  <path
     id="parallel2"
     style="fill:#c0c0c0;fill-opacity:1;stroke:none"
     d="m 120,64 h -8 C 112,75 90.5,80 64,80 37.5,80 16,75 16,64 H 8 c 0,15.5 25,24 56,24 31,0 56,-8.5 56,-24 z" />
  <path
     id="sphere"
     style="fill:#c0c0c0;fill-opacity:1;stroke:none"
     d="M 64,8 C 33,8 8,33 8,64 8,95 33,120 64,120 95,120 120,95 120,64 120,33 95,8 64,8 Z m 0,8 c 26.5,0 48,21.5 48,48 0,26.5 -21.5,48 -48,48 C 37.5,112 16,90.5 16,64 16,37.5 37.5,16 64,16 Z" />
</svg>
