<?xml version="1.0" encoding="UTF-8" standalone="no"?>
<!-- Created with Inkscape (http://www.inkscape.org/) -->

<svg
   width="128"
   height="128"
   viewBox="0 0 128 128"
   version="1.1"
   id="svg1"
   xmlns="http://www.w3.org/2000/svg"
   xmlns:svg="http://www.w3.org/2000/svg">
  <path
     id="floppy"
     style="fill:#c0c0c0;fill-opacity:1;stroke:none"
     d="m 12,16 v 96 c 0,2 2,4 4,4 H 36 V 80 h 56 v 36 h 20 c 2,0 4,-2 4,-4 V 28 L 100,12 H 16 c -2,0 -4,2 -4,4 z m 28,4 h 48 v 28 c 0,2 -2,4 -4,4 H 44 c -2,0 -4,-2 -4,-4 z m 28,4 V 48 H 80 V 24 Z M 44,88 v 28 H 84 V 88 Z m -24,12 h 8 v 8 h -8 z m 80,0 h 8 v 8 h -8 z" />
</svg>
