<?xml version="1.0" encoding="utf-8"?>
<!-- Generator: Adobe Illustrator 27.2.0, SVG Export Plug-In . SVG Version: 6.00 Build 0)  -->
<svg version="1.1" id="Layer_1" xmlns="http://www.w3.org/2000/svg" xmlns:xlink="http://www.w3.org/1999/xlink" x="0px" y="0px"
	 viewBox="0 0 256 256" enable-background="new 0 0 256 256" xml:space="preserve">
<g id="sun">
	<g>
		<path fill-rule="evenodd" clip-rule="evenodd" fill="#FF8000" d="M116.79,252.31c-2.8,0-5.62-2.19-5.62-7.08v-77.91
			c-2.37-1.01-4.63-2.23-6.77-3.66L91.88,201.2c-1.65,4.94-7.02,8.81-12.23,8.81H37.68c-4.68,0-6.24-2.53-6.69-3.62
			c-0.45-1.09-1.14-3.98,2.17-7.29l55.15-55.15c-0.96-2.38-1.69-4.83-2.21-7.35l-35.45,17.72c-1.63,0.82-3.55,1.25-5.54,1.25
			c-3.55,0-7.05-1.37-9.34-3.66L6.09,122.24c-3.31-3.31-2.62-6.2-2.17-7.29c0.45-1.09,2-3.62,6.69-3.62H88.6
			c1-2.36,2.21-4.62,3.61-6.76L54.63,92.05c-4.94-1.65-8.81-7.02-8.81-12.23V37.84c0-4.89,2.82-7.08,5.62-7.08
			c1.81,0,3.58,0.86,5.29,2.56l55.09,55.09c2.38-0.97,4.84-1.72,7.36-2.25L101.5,50.82c-2.33-4.66-1.27-11.19,2.41-14.88L133.6,6.25
			c1.7-1.7,3.48-2.56,5.28-2.56c2.8,0,5.62,2.19,5.62,7.08v77.8c2.42,1.02,4.74,2.25,6.93,3.69l12.49-37.47
			c1.65-4.94,7.02-8.81,12.23-8.81h41.98c4.68,0,6.24,2.53,6.69,3.62c0.45,1.09,1.14,3.98-2.17,7.29l-55.05,55.05
			c0.97,2.39,1.71,4.85,2.23,7.38l35.32-17.66c1.63-0.82,3.55-1.25,5.54-1.25c3.55,0,7.05,1.37,9.34,3.66l29.68,29.68
			c3.31,3.31,2.62,6.2,2.17,7.29s-2,3.62-6.69,3.62h-77.86c-1.01,2.39-2.23,4.67-3.66,6.84l37.36,12.45
			c4.94,1.65,8.81,7.02,8.81,12.23v41.98c0,4.89-2.82,7.08-5.62,7.08c-1.81,0-3.58-0.86-5.28-2.56l-55.01-55.01
			c-2.4,0.97-4.87,1.71-7.41,2.22l17.65,35.3c2.33,4.66,1.27,11.19-2.41,14.88l-29.68,29.68
			C120.38,251.45,118.6,252.31,116.79,252.31z"/>
		<path d="M138.88,7.31c1.21,0,2,1.2,2,3.46v80.29c4.59,1.6,8.78,4.03,12.41,7.11l14.08-42.23c1.17-3.5,5.1-6.34,8.79-6.34h41.98
			c3.69,0,4.56,2.11,1.96,4.72l-56.8,56.8c2.01,4.2,3.28,8.81,3.67,13.68l39.82-19.91c1.17-0.59,2.53-0.87,3.92-0.87
			c2.51,0,5.1,0.92,6.78,2.6l29.68,29.68c2.61,2.61,1.73,4.72-1.96,4.72h-80.34c-1.61,4.55-4.03,8.71-7.1,12.31l42.13,14.04
			c3.5,1.17,6.34,5.1,6.34,8.79v41.98c0,2.25-0.79,3.46-2,3.46c-0.77,0-1.71-0.49-2.72-1.5l-56.76-56.76
			c-4.21,2-8.84,3.27-13.71,3.64l19.9,39.81c1.65,3.3,0.87,8.09-1.74,10.7l-29.68,29.68c-1.01,1.01-1.95,1.5-2.72,1.5
			c-1.21,0-2-1.2-2-3.46v-80.38c-4.52-1.62-8.66-4.05-12.24-7.11l-14.11,42.32c-1.17,3.5-5.1,6.34-8.79,6.34H37.68
			c-3.69,0-4.56-2.11-1.96-4.72l56.9-56.9c-1.99-4.19-3.25-8.8-3.64-13.65L49.03,151.1c-1.17,0.59-2.53,0.87-3.92,0.87
			c-2.51,0-5.1-0.92-6.78-2.6L8.65,119.68c-2.61-2.61-1.73-4.72,1.96-4.72h80.47c1.6-4.52,4-8.65,7.04-12.24L55.78,88.61
			c-3.5-1.17-6.34-5.1-6.34-8.79V37.84c0-2.25,0.79-3.46,2-3.46c0.77,0,1.71,0.49,2.72,1.5l56.85,56.85
			c4.19-2.02,8.79-3.3,13.64-3.71l-19.91-39.83c-1.65-3.3-0.87-8.09,1.74-10.7l29.68-29.68C137.17,7.8,138.11,7.31,138.88,7.31
			 M138.88,0.07L138.88,0.07c-1.93,0-4.85,0.63-7.85,3.62l-29.68,29.68c-4.8,4.8-6.13,12.99-3.09,19.06l15.68,31.36
			c-0.41,0.13-0.81,0.26-1.21,0.4L59.29,30.76c-2.99-2.99-5.92-3.62-7.85-3.62c-3.15,0-6.02,1.65-7.67,4.41
			c-1.04,1.75-1.57,3.86-1.57,6.29v41.98c0,6.78,4.85,13.52,11.29,15.66l33.34,11.11c-0.19,0.37-0.38,0.74-0.56,1.11H10.61
			c-4.76,0-8.51,2.19-10.03,5.86c-1.52,3.67-0.41,7.87,2.95,11.24l29.68,29.68c3,3,7.34,4.72,11.9,4.72c2.55,0,5.02-0.56,7.16-1.63
			l31.44-15.72c0.12,0.4,0.25,0.79,0.39,1.18l-53.5,53.5c-3.37,3.37-4.47,7.57-2.95,11.24c1.52,3.67,5.27,5.86,10.03,5.86h41.98
			c6.78,0,13.52-4.85,15.66-11.29l11.1-33.29c0.37,0.2,0.75,0.39,1.13,0.58v75.59c0,7.35,4.79,10.7,9.25,10.7
			c1.93,0,4.85-0.63,7.85-3.62l29.68-29.68c4.8-4.8,6.13-12.99,3.09-19.06l-15.64-31.29c0.42-0.13,0.83-0.26,1.24-0.41l53.37,53.37
			c2.99,2.99,5.92,3.62,7.85,3.62c4.45,0,9.25-3.35,9.25-10.7v-41.98c0-6.78-4.85-13.52-11.29-15.66l-33.11-11.04
			c0.21-0.39,0.41-0.79,0.6-1.19h75.53c4.76,0,8.51-2.19,10.03-5.86s0.41-7.87-2.95-11.24l-29.68-29.68c-3-3-7.34-4.72-11.9-4.72
			c-2.55,0-5.02,0.56-7.16,1.63l-31.32,15.66c-0.13-0.41-0.26-0.82-0.4-1.23l53.4-53.4c3.37-3.37,4.47-7.57,2.95-11.24
			c-1.52-3.67-5.27-5.86-10.03-5.86h-41.98c-6.78,0-13.52,4.85-15.66,11.29l-11.08,33.23c-0.43-0.22-0.86-0.44-1.29-0.65V10.77
			C148.13,3.42,143.34,0.07,138.88,0.07L138.88,0.07L138.88,0.07z"/>
	</g>
</g>
</svg>
