<?xml version="1.0" encoding="UTF-8" standalone="no"?>
<!-- Created with Inkscape (http://www.inkscape.org/) -->

<svg
   width="256"
   height="256"
   viewBox="0 0 256 256"
   version="1.1"
   id="svg1"
   xmlns="http://www.w3.org/2000/svg"
   xmlns:svg="http://www.w3.org/2000/svg">
  <path
     id="sun"
     style="fill:#ff8000;fill-opacity:1;stroke:none"
     d="M 138.5,8 C 136,8 134,10 132,12 l -28,28 c -2,2 -3,5 -3,8 0,0 0,2 1,4 l 17.92,35.85 c -2.38,0.5 -4.7,1.24 -6.92,2.16 L 59,36 c -2,-1.5 -3,-2 -5,-2 -4,0 -5,3 -5,6 v 42 c 0,4 1,6 3,8 1.5,1.5 2.5,2 5,3 l 37.11,12.38 c -1.42,2.09 -2.66,4.3 -3.69,6.62 H 14 c -4,0 -6,3 -6,5.5 0,2.5 2,4.5 4,6.5 l 28,28 c 2,2 5,3 8,3 0,0 2,0 4,-1 l 35.85,-17.92 c 0.5,2.38 1.24,4.7 2.16,6.92 L 36,197 c -1.5,2 -2,3 -2,5 0,4 3,5 6,5 h 42 c 4,0 6,-1 8,-3 1.5,-1.5 2,-2.5 3,-5 l 12.38,-37.11 c 2.09,1.42 4.3,2.66 6.62,3.69 V 242 c 0,4 3,6 5.5,6 2.5,0 4.5,-2 6.5,-4 l 28,-28 c 2,-2 3,-5 3,-8 0,0 0,-2 -1,-4 l -17.92,-35.85 c 2.38,-0.5 4.7,-1.24 6.92,-2.16 l 54,54 c 2,1.51 3,2.01 5,2 4,-0.02 5,-3 5,-6 v -42 c 0,-4 -1,-6 -3,-8 -1.5,-1.5 -2.5,-2 -5,-3 l -37.11,-12.38 c 1.42,-2.09 2.66,-4.3 3.69,-6.62 H 242 c 4,0.01 6,-2.99 6,-5.49 0,-2.5 -2,-4.5 -4,-6.5 l -28,-28 c -2,-2 -5,-3 -8,-3 0,0 -2,0 -4,1 l -35.85,17.92 c -0.5,-2.38 -1.23,-4.69 -2.15,-6.92 l 54,-54 c 1.5,-2 2,-3 2,-5 0,-4 -3,-5 -6,-5 h -42 c -4,0 -6,1 -8,3 -1.5,1.5 -2,2.5 -3,5 l -12.38,37.11 c -2.08,-1.43 -4.3,-2.66 -6.62,-3.69 V 14 c 0,-4 -3,-6 -5.5,-6 z" />
  <path
     id="stroke"
     style="fill:none;stroke:#000000;stroke-width:6;stroke-opacity:1"
     d="M 138.5,8 C 136,8 134,10 132,12 l -28,28 c -2,2 -3,5 -3,8 0,0 0,2 1,4 l 17.92,35.85 c -2.38,0.5 -4.7,1.24 -6.92,2.16 L 59,36 c -2,-1.5 -3,-2 -5,-2 -4,0 -5,3 -5,6 v 42 c 0,4 1,6 3,8 1.5,1.5 2.5,2 5,3 l 37.11,12.38 c -1.42,2.09 -2.66,4.3 -3.69,6.62 H 14 c -4,0 -6,3 -6,5.5 0,2.5 2,4.5 4,6.5 l 28,28 c 2,2 5,3 8,3 0,0 2,0 4,-1 l 35.85,-17.92 c 0.5,2.38 1.24,4.7 2.16,6.92 L 36,197 c -1.5,2 -2,3 -2,5 0,4 3,5 6,5 h 42 c 4,0 6,-1 8,-3 1.5,-1.5 2,-2.5 3,-5 l 12.38,-37.11 c 2.09,1.42 4.3,2.66 6.62,3.69 V 242 c 0,4 3,6 5.5,6 2.5,0 4.5,-2 6.5,-4 l 28,-28 c 2,-2 3,-5 3,-8 0,0 0,-2 -1,-4 l -17.92,-35.85 c 2.38,-0.5 4.7,-1.24 6.92,-2.16 l 54,54 c 2,1.51 3,2 5,2 4,0 5,-3 5,-6 v -42 c 0,-4 -1,-6 -3,-8 -1.5,-1.5 -2.5,-2 -5,-3 l -37.11,-12.38 c 1.42,-2.09 2.66,-4.3 3.69,-6.62 H 242 c 4,0.01 6,-2.99 6,-5.49 0,-2.5 -2,-4.5 -4,-6.5 l -28,-28 c -2,-2 -5,-3 -8,-3 0,0 -2,0 -4,1 l -35.85,17.92 c -0.5,-2.38 -1.23,-4.69 -2.15,-6.92 l 54,-54 c 1.5,-2 2,-3 2,-5 0,-4 -3,-5 -6,-5 h -42 c -4,0 -6,1 -8,3 -1.5,1.5 -2,2.5 -3,5 l -12.38,37.11 c -2.08,-1.43 -4.3,-2.66 -6.62,-3.69 V 14 c 0,-4 -3,-6 -5.5,-6 z" />
</svg>
