<?xml version="1.0" encoding="UTF-8" standalone="no"?>
<!-- Created with Inkscape (http://www.inkscape.org/) -->

<svg
   width="128"
   height="128"
   viewBox="0 0 128 128"
   version="1.1"
   id="svg1"
   xmlns="http://www.w3.org/2000/svg"
   xmlns:svg="http://www.w3.org/2000/svg">
  <path
     id="plus_sign"
     style="fill:#c0c0c0;fill-opacity:1;stroke:none"
     d="M 56,18 V 56 H 18 c -1,0 -2,1 -2,2 v 12 c 0,1 1,2 2,2 h 38 v 38 c 0,1 1,2 2,2 h 12 c 1,0 2,-1 2,-2 V 72 h 38 c 1,0 2,-1 2,-2 V 58 c 0,-1 -1,-2 -2,-2 H 72 V 18 c 0,-1 -1,-2 -2,-2 H 58 c -1,0 -2,1 -2,2 z" />
</svg>
