<?xml version="1.0" encoding="UTF-8" standalone="no"?>
<!-- Created with Inkscape (http://www.inkscape.org/) -->

<svg
   width="128"
   height="128"
   viewBox="0 0 128 128"
   version="1.1"
   id="svg1"
   xmlns="http://www.w3.org/2000/svg"
   xmlns:svg="http://www.w3.org/2000/svg">
  <path
     id="handle_bottom"
     style="fill:#c0c0c0;fill-opacity:1;stroke:none"
     d="m 80,92 c 5,-3 9,-7 12,-12 l 28,28 c 0,6 -6,12 -12,12 z" />
  <path
     id="handle_middle"
     style="fill:#c0c0c0;fill-opacity:0.50;stroke:none"
     d="m 80,88 v 4 c 5,-3 9,-7 12,-12 h -4 c -2,3 -5,6 -8,8 z" />
  <path
     id="handle_top"
     style="fill:#c0c0c0;fill-opacity:1;stroke:none"
     d="m 68,76 c 3,-2 6,-5 8,-8 l 12,12 c -2,3 -5,6 -8,8 z" />
  <path
     id="lens_frame"
     style="fill:#c0c0c0;fill-opacity:1;stroke:none"
     d="M 44,8 C 24,8 8,24 8,44 8,64 24,80 44,80 64,80 80,64 80,44 80,24 64,8 44,8 Z m 0,8 C 59.5,16 72,28.5 72,44 72,59.5 59.5,72 44,72 28.5,72 16,59.5 16,44 16,28.5 28.5,16 44,16 Z" />
  <path
     id="lens_glass"
     style="fill:#c0c0c0;fill-opacity:0.35;stroke:none"
     d="M 72,44 C 72,59.5 59.5,72 44,72 28.5,72 16,59.5 16,44 16,28.5 28.5,16 44,16 59.5,16 72,28.5 72,44 Z" />
</svg>
