<?xml version="1.0" encoding="utf-8"?>
<!-- Generator: Adobe Illustrator 27.2.0, SVG Export Plug-In . SVG Version: 6.00 Build 0)  -->
<svg version="1.1" id="Layer_1" xmlns="http://www.w3.org/2000/svg" xmlns:xlink="http://www.w3.org/1999/xlink" x="0px" y="0px"
	 viewBox="0 0 128 128" enable-background="new 0 0 128 128" xml:space="preserve">
<path fill="#C0C0C0" d="M24,120h16c4.42,0,8-3.57,8-8s-3.58-8-8-8H24c-4.42,0-8-3.58-8-8V32c0-4.42,3.58-8,8-8h16c4.42,0,8-3.58,8-8
	s-3.58-8-8-8H24C10.75,8,0,18.75,0,32v64C0,109.25,10.75,120,24,120z M126.2,59.62l-36.03-34c-1.74-1.64-4.3-2.09-6.5-1.15
	c-2.2,0.95-3.63,3.12-3.63,5.51l-0.02,18l-32,0c-4.42,0-8.01,3.58-8.01,8v16c0,4.42,3.58,8,8.01,8l32,0l0.02,17.78
	c0,2.39,1.43,4.56,3.63,5.51c2.2,0.95,4.76,0.5,6.5-1.15l36.03-34C128.6,66.1,128.6,61.9,126.2,59.62z"/>
</svg>
