<?xml version="1.0" encoding="UTF-8" standalone="no"?>
<!-- Created with Inkscape (http://www.inkscape.org/) -->

<svg
   width="128"
   height="128"
   viewBox="0 0 128 128"
   version="1.1"
   id="svg1"
   xmlns="http://www.w3.org/2000/svg"
   xmlns:svg="http://www.w3.org/2000/svg">
  <path
     id="tray"
     style="fill:#c0c0c0;fill-opacity:1;stroke:none"
     d="m 8,8 v 112 h 40 v -8 H 16 V 16 H 48 V 8 Z" />
  <path
     id="arrow_tail"
     style="fill:#c0c0c0;fill-opacity:1;stroke:none"
     d="m 38,58 h 44 c 1,0 2,1 2,2 v 8 c 0,1 -1,2 -2,2 H 38 c -1,0 -2,-1 -2,-2 v -8 c 0,-1 1,-2 2,-2 z" />
  <path
     id="arrow_head"
     style="fill:#c0c0c0;fill-opacity:1;stroke:none"
     d="m 120,64 -40,40 c -4,4 -10,-2 -6,-6 L 84,88 C 90,82 92,72 92,64 92,56 90,46 84,40 L 74,30 c -4,-4 2,-10 6,-6" />
</svg>
