<?xml version="1.0" encoding="utf-8"?>
<!-- Generator: Adobe Illustrator 27.2.0, SVG Export Plug-In . SVG Version: 6.00 Build 0)  -->
<svg version="1.1" id="Layer_3" xmlns="http://www.w3.org/2000/svg" xmlns:xlink="http://www.w3.org/1999/xlink" x="0px" y="0px"
	 viewBox="0 0 128 128" enable-background="new 0 0 128 128" xml:space="preserve">
<rect x="8" y="72" fill="#E59024" width="48" height="48"/>
<line fill="none" stroke="#C0C0C0" stroke-width="8" stroke-miterlimit="10" x1="12" y1="40" x2="12" y2="56"/>
<polyline fill="none" stroke="#C0C0C0" stroke-width="8" stroke-miterlimit="10" points="52,24 52,12 40,12 "/>
<polyline fill="none" stroke="#C0C0C0" stroke-width="8" stroke-miterlimit="10" points="24,12 12,12 12,24 "/>
<line fill="none" stroke="#C0C0C0" stroke-width="10" stroke-linecap="round" stroke-miterlimit="10" x1="80" y1="48" x2="96" y2="32"/>
<polyline fill="#C0C0C0" points="116,44 116,12 84,12 84,16 96,16 102,22 106,26 112,32 112,44 116,44 "/>
<line fill="none" stroke="#C0C0C0" stroke-width="8" stroke-miterlimit="10" x1="52" y1="40" x2="52" y2="56"/>
<line fill="none" stroke="#C0C0C0" stroke-width="8" stroke-miterlimit="10" x1="88" y1="76" x2="72" y2="76"/>
<polyline fill="none" stroke="#C0C0C0" stroke-width="8" stroke-miterlimit="10" points="104,116 116,116 116,104 "/>
<polyline fill="none" stroke="#C0C0C0" stroke-width="8" stroke-miterlimit="10" points="116,88 116,76 104,76 "/>
<line fill="none" stroke="#C0C0C0" stroke-width="8" stroke-miterlimit="10" x1="88" y1="116" x2="72" y2="116"/>
</svg>
