<?xml version="1.0" encoding="UTF-8" standalone="no"?>
<!-- Created with Inkscape (http://www.inkscape.org/) -->

<svg
   width="128"
   height="128"
   viewBox="0 0 128 128"
   version="1.1"
   id="svg1"
   xmlns="http://www.w3.org/2000/svg"
   xmlns:svg="http://www.w3.org/2000/svg">
  <path
     id="rectangle"
     style="fill:#e59024;fill-opacity:1;stroke:none"
     d="m 8,8 v 112 h 40 v -8 H 16 V 16 h 96 v 32 h 8 V 8 Z" />
  <path
     id="arrow_head"
     style="fill:#c0c0c0;fill-opacity:1;stroke:none"
     d="m 64,64 h 52 c 6,0 6,8 0,8 H 104 C 86,72 72,86 72,104 v 12 c 0,6 -8,6 -8,0" />
  <path
     id="arrow_tail"
     style="fill:#c0c0c0;fill-opacity:1;stroke:none"
     d="m 93,84 27,27 c 1,1 1,2 0,3 l -6,6 c -1,1 -2,1 -3,0 L 84,93 c -1,-1 -1,-2 0,-3 l 6,-6 c 1,-1 2,-1 3,0 z" />
</svg>
