<?xml version="1.0" encoding="utf-8"?>
<!-- Generator: Adobe Illustrator 27.2.0, SVG Export Plug-In . SVG Version: 6.00 Build 0)  -->
<svg version="1.1" id="Layer_2_00000179621536958208582260000016017537997879487167_"
	 xmlns="http://www.w3.org/2000/svg" xmlns:xlink="http://www.w3.org/1999/xlink" x="0px" y="0px" viewBox="0 0 128 128"
	 enable-background="new 0 0 128 128" xml:space="preserve">
<path fill="none" stroke="#C0C0C0" stroke-width="6" stroke-linecap="round" stroke-linejoin="round" stroke-miterlimit="10" d="
	M27,35l2.32-2.88C52.28,3.62,97.92,13.54,107,49l0,0"/>
<path fill="#C0C0C0" d="M8,56h32v-4c-19.7-0.7-28.66-10.34-28-28H8V56z"/>
<path fill="none" stroke="#C0C0C0" stroke-width="6" stroke-linecap="round" stroke-linejoin="round" stroke-miterlimit="10" d="
	M101,93l-2.32,2.88C75.72,124.38,30.06,114.48,21,79l0,0"/>
<path fill="#C0C0C0" d="M120,72H88v4c19.7,0.7,28.66,10.34,28,28h4V72z"/>
<path fill="#E59024" d="M45.34,67.34l15.34,15.34c1.84,1.84,4.82,1.84,6.66,0l15.34-15.34c1.84-1.84,1.84-4.82,0-6.66L67.34,45.34
	c-1.84-1.84-4.82-1.84-6.66,0L45.34,60.68C43.5,62.5,43.5,65.5,45.34,67.34z"/>
</svg>
