<?xml version="1.0" encoding="UTF-8" standalone="no"?>
<!-- Created with Inkscape (http://www.inkscape.org/) -->

<svg
   width="128"
   height="128"
   viewBox="0 0 128 128"
   version="1.1"
   id="svg1"
   xmlns="http://www.w3.org/2000/svg"
   xmlns:svg="http://www.w3.org/2000/svg">
  <path
     id="brush"
     style="fill:#e59024;fill-opacity:1;stroke:none"
     d="m 60,56 12,12 c 3,3 3,5 0,8 L 60,88 c -3,3 -5,3 -8,0 L 40,76 c -3,-3 -3,-5 0,-8 L 52,56 c 3,-3 5,-3 8,0 z" />
  <path
     id="arrow1"
     style="fill:#c0c0c0;fill-opacity:1;stroke:none"
     d="m 56,8 21,21 c 2,2 -1,5 -3,3 l -5,-5 c -6,-4 -11,-4 -13,-4 -2,0 -7,0 -13,4 l -5,5 c -2,2 -5,-1 -3,-3" />
  <path
     id="tail1"
     style="fill:#c0c0c0;fill-opacity:1;stroke:none"
     d="m 54,28 h 4 c 1,0 2,1 2,2 v 16 c 0,1 -1,2 -2,2 h -4 c -1,0 -2,-1 -2,-2 V 30 c 0,-1 1,-2 2,-2 z" />
  <path
     id="arrow2"
     style="fill:#c0c0c0;fill-opacity:1;stroke:none"
     d="M 120,72 99,93 c -2,2 -5,-1 -3,-3 l 5,-5 c 4,-6 4,-11 4,-13 0,-2 0,-7 -4,-13 l -5,-5 c -2,-2 1,-5 3,-3" />
  <path
     id="tail2"
     style="fill:#c0c0c0;fill-opacity:1;stroke:none"
     d="m 80,74 v -4 c 0,-1 1,-2 2,-2 h 16 c 1,0 2,1 2,2 v 4 c 0,1 -1,2 -2,2 H 82 c -1,0 -2,-1 -2,-2 z" />
  <path
     id="arrow3"
     style="fill:#c0c0c0;fill-opacity:1;stroke:none"
     d="m 12,116 h 32 c 3,0 3,-4 0,-4 h -8 c -8,-2 -11,-5 -13,-7 -2,-2 -5,-5 -7,-13 v -8 c 0,-3 -4,-3 -4,0" />
  <path
     id="tail3"
     style="fill:#c0c0c0;fill-opacity:1;stroke:none"
     d="m 40,86 2,2 c 1,1 1,3 0,4 l -10,10 c -1,1 -3,1 -4,0 l -2,-2 c -1,-1 -1,-3 0,-4 L 36,86 c 1,-1 3,-1 4,0 z" />
</svg>
