<?xml version="1.0" encoding="utf-8"?>
<!-- Generator: Adobe Illustrator 27.2.0, SVG Export Plug-In . SVG Version: 6.00 Build 0)  -->
<svg version="1.1" id="Layer_3" xmlns="http://www.w3.org/2000/svg" xmlns:xlink="http://www.w3.org/1999/xlink" x="0px" y="0px"
	 viewBox="0 0 128 128" enable-background="new 0 0 128 128" xml:space="preserve">
<rect x="8" y="72" fill="#E59024" width="48" height="48"/>
<line fill="none" stroke="#C0C0C0" stroke-width="8" stroke-miterlimit="10" x1="72" y1="116" x2="88" y2="116"/>
<line fill="none" stroke="#C0C0C0" stroke-width="8" stroke-miterlimit="10" x1="116" y1="88" x2="116" y2="72"/>
<line fill="none" stroke="#C0C0C0" stroke-width="8" stroke-miterlimit="10" x1="116" y1="56" x2="116" y2="40"/>
<line fill="none" stroke="#C0C0C0" stroke-width="8" stroke-miterlimit="10" x1="88" y1="12" x2="72" y2="12"/>
<line fill="none" stroke="#C0C0C0" stroke-width="8" stroke-miterlimit="10" x1="56" y1="12" x2="40" y2="12"/>
<line fill="none" stroke="#C0C0C0" stroke-width="8" stroke-miterlimit="10" x1="12" y1="40" x2="12" y2="56"/>
<polyline fill="none" stroke="#C0C0C0" stroke-width="8" stroke-miterlimit="10" points="104,116 116,116 116,104 "/>
<polyline fill="none" stroke="#C0C0C0" stroke-width="8" stroke-miterlimit="10" points="116,24 116,12 104,12 "/>
<polyline fill="none" stroke="#C0C0C0" stroke-width="8" stroke-miterlimit="10" points="24,12 12,12 12,24 "/>
<line fill="none" stroke="#C0C0C0" stroke-width="10" stroke-linecap="round" stroke-miterlimit="10" x1="68" y1="60" x2="84" y2="44"/>
<polyline fill="#C0C0C0" points="104,56 104,24 72,24 72,28 84,28 90,34 94,38 100,44 100,56 104,56 "/>
</svg>
