<?xml version="1.0" encoding="UTF-8" standalone="no"?>
<!-- Created with Inkscape (http://www.inkscape.org/) -->

<svg
   width="128"
   height="128"
   viewBox="0 0 128 128"
   version="1.1"
   id="svg1"
   xmlns="http://www.w3.org/2000/svg"
   xmlns:svg="http://www.w3.org/2000/svg">
  <path
     id="points"
     style="fill:#c0c0c0;fill-opacity:1;stroke:none"
     d="m 12,8 c -2,0 -4,2 -4,4 v 16 c 0,2 2,4 4,4 h 16 c 2,0 4,-2 4,-4 V 12 C 32,10 30,8 28,8 Z m 88,0 c -2,0 -4,2 -4,4 v 16 c 0,2 2,4 4,4 h 16 c 2,0 4,-2 4,-4 V 12 c 0,-2 -2,-4 -4,-4 z M 12,96 c -2,0 -4,2 -4,4 v 16 c 0,2 2,4 4,4 h 16 c 2,0 4,-2 4,-4 v -16 c 0,-2 -2,-4 -4,-4 z" />
  <path
     id="dashed_lines"
     style="fill:#c0c0c0;fill-opacity:1;stroke:none"
     d="m 40,16 v 8 h 16 v -8 z m 32,0 v 8 H 88 V 16 Z M 16,40 v 16 h 8 V 40 Z m 0,32 v 16 h 8 V 72 Z" />
  <path
     id="tex_frame"
     style="fill:#c0c0c0;fill-opacity:1;stroke:none"
     d="m 40,40 v 72 h 72 V 40 Z m 4,4 h 64 v 64 H 44 Z" />
  <path
     id="tex_squares1"
     style="fill:#c0c0c0;fill-opacity:1;stroke:none"
     d="M 44,44 V 76 H 76 V 44 Z m 32,32 v 32 h 32 V 76 Z" />
  <path
     id="tex_squares2"
     style="fill:#c0c0c0;fill-opacity:0.35;stroke:none"
     d="M 108,44 V 76 H 76 V 44 Z M 76,76 v 32 H 44 V 76 Z" />
</svg>
