<?xml version="1.0" encoding="UTF-8" standalone="no"?>
<!-- Created with Inkscape (http://www.inkscape.org/) -->

<svg
   width="128"
   height="128"
   viewBox="0 0 128 128"
   version="1.1"
   id="svg1"
   xmlns="http://www.w3.org/2000/svg"
   xmlns:svg="http://www.w3.org/2000/svg">
  <path
     id="cube"
     style="fill:#e59024;fill-opacity:1;stroke:none"
     d="M 32,40 8,64 40,120 H 96 L 120,96 88,40 Z m 4,8 H 80 L 64,64 H 20 Z M 86,54 110,94 96,108 72,68 Z M 22,72 h 42 l 24,40 H 46 Z" />
  <path
     id="cube_fill"
     style="display:none;fill:#e59024;fill-opacity:0.35;stroke:none"
     d="M 36,48 20,64 H 64 L 80,48 Z m 50,6 -14,14 24,40 14,-14 z M 22,72 46,112 H 88 L 64,72 Z" />
  <path
     id="arrow"
     style="fill:#c0c0c0;fill-opacity:1;stroke:none"
     d="m 88,28 21,21 c 2,2 5,-1 3,-3 l -5,-5 c -4,-6 -4,-11 -4,-13 0,-2 0,-7 4,-13 l 5,-5 c 2,-2 -1,-5 -3,-3" />
  <path
     id="arrow_tail"
     style="fill:#c0c0c0;fill-opacity:1;stroke:none"
     d="m 110,24 h 12 c 1,0 2,1 2,2 v 4 c 0,1 -1,2 -2,2 h -12 c -1,0 -2,-1 -2,-2 v -4 c 0,-1 1,-2 2,-2 z" />
</svg>
