<?xml version="1.0" encoding="utf-8"?>
<!-- Generator: Adobe Illustrator 27.2.0, SVG Export Plug-In . SVG Version: 6.00 Build 0)  -->
<svg version="1.1" id="Layer_3" xmlns="http://www.w3.org/2000/svg" xmlns:xlink="http://www.w3.org/1999/xlink" x="0px" y="0px"
	 viewBox="0 0 128 128" enable-background="new 0 0 128 128" xml:space="preserve">
<path fill="none" stroke="#C0C0C0" stroke-width="8" stroke-miterlimit="10" d="M12,84c8,0,16,0,24,0c0-16,0-32,0-48c16,0,32,0,48,0
	c0-8,0-16,0-24c-24,0-48,0-72,0C12,36,12,60,12,84z"/>
<path fill="none" stroke="#C0C0C0" stroke-width="8" stroke-miterlimit="10" d="M116,44c-8,0-16,0-24,0c0,16,0,32,0,48
	c-16,0-32,0-48,0c0,8,0,16,0,24c24,0,48,0,72,0C116,92,116,68,116,44z"/>
</svg>
