<?xml version="1.0" encoding="UTF-8" standalone="no"?>
<!-- Created with Inkscape (http://www.inkscape.org/) -->

<svg
   width="128"
   height="128"
   viewBox="0 0 128 128"
   version="1.1"
   id="svg1"
   xmlns="http://www.w3.org/2000/svg"
   xmlns:svg="http://www.w3.org/2000/svg">
  <path
     id="selection"
     style="fill:#e59024;fill-opacity:1;stroke:none"
     d="M 8,8 V 120 H 120 V 8 Z m 8,8 h 96 v 96 H 16 Z" />
  <path
     id="brushes"
     style="fill:#c0c0c0;fill-opacity:1;stroke:none"
     d="m 24,28 v 72 c 0,2 2,4 4,4 h 28 c 2,0 4,-2 4,-4 V 28 c 0,-2 -2,-4 -4,-4 H 28 c -2,0 -4,2 -4,4 z m 44,36 v 28 c 0,2 2,4 4,4 h 28 c 2,0 4,-2 4,-4 V 64 c 0,-2 -2,-4 -4,-4 H 72 c -2,0 -4,2 -4,4 z" />
</svg>
