<?xml version="1.0" encoding="utf-8"?>
<!-- Generator: Adobe Illustrator 27.2.0, SVG Export Plug-In . SVG Version: 6.00 Build 0)  -->
<svg version="1.1" id="Layer_3" xmlns="http://www.w3.org/2000/svg" xmlns:xlink="http://www.w3.org/1999/xlink" x="0px" y="0px"
	 viewBox="0 0 128 128" enable-background="new 0 0 128 128" xml:space="preserve">
<path fill="none" stroke="#C0C0C0" stroke-width="8" stroke-miterlimit="10" d="M12,56"/>
<path fill="none" stroke="#C0C0C0" stroke-width="8" stroke-miterlimit="10" d="M12,40"/>
<path fill="none" stroke="#C0C0C0" stroke-width="8" stroke-miterlimit="10" d="M12,24"/>
<path fill="none" stroke="#C0C0C0" stroke-width="8" stroke-miterlimit="10" d="M24,12"/>
<line fill="none" stroke="#C0C0C0" stroke-width="10" stroke-linecap="round" stroke-miterlimit="10" x1="37" y1="91" x2="28" y2="100"/>
<polyline fill="#C0C0C0" points="8,88 8,120 40,120 40,116 28,116 22,110 18,106 12,100 12,88 8,88 "/>
<path fill="none" stroke="#C0C0C0" stroke-width="8" stroke-miterlimit="10" d="M12,112"/>
<path fill="none" stroke="#C0C0C0" stroke-width="8" stroke-miterlimit="10" d="M28,112"/>
<rect x="52" y="28" fill="#C0C0C0" width="8" height="20"/>
<rect x="80" y="68" fill="#C0C0C0" width="20" height="8"/>
<polyline fill="none" stroke="#C0C0C0" stroke-width="8" stroke-linecap="round" stroke-linejoin="round" stroke-miterlimit="10" points="
	38,30 56,12 74,30 "/>
<polyline fill="none" stroke="#C0C0C0" stroke-width="8" stroke-linecap="round" stroke-linejoin="round" stroke-miterlimit="10" points="
	99,54.08 117,72.08 99,90.08 "/>
<circle fill="#E59024" cx="56" cy="72" r="14"/>
</svg>
