<?xml version="1.0" encoding="UTF-8" standalone="no"?>
<!-- Created with Inkscape (http://www.inkscape.org/) -->

<svg
   width="128"
   height="128"
   viewBox="0 0 128 128"
   version="1.1"
   id="svg1"
   xmlns="http://www.w3.org/2000/svg"
   xmlns:svg="http://www.w3.org/2000/svg">
  <path
     id="selection"
     style="fill:#e59024;fill-opacity:1;stroke:none"
     d="M 32,32 V 96 H 96 V 32 Z m 8,8 H 88 V 88 H 40 Z" />
  <path
     id="brushes"
     style="fill:#c0c0c0;fill-opacity:1;stroke:none"
     d="m 28,10 v 12 c 0,1 1,2 2,2 h 68 c 1,0 2,-1 2,-2 V 10 C 100,9 99,8 98,8 H 30 c -1,0 -2,1 -2,2 z M 8,30 v 68 c 0,1 1,2 2,2 h 12 c 1,0 2,-1 2,-2 V 30 c 0,-1 -1,-2 -2,-2 H 10 c -1,0 -2,1 -2,2 z m 110,-2 h -12 c -1,0 -2,1 -2,2 v 68 c 0,1 1,2 2,2 h 12 c 1,0 2,-1 2,-2 V 30 c 0,-1 -1,-2 -2,-2 z m -90,78 v 12 c 0,1 1,2 2,2 h 68 c 1,0 2,-1 2,-2 v -12 c 0,-1 -1,-2 -2,-2 H 30 c -1,0 -2,1 -2,2 z" />
</svg>
