<?xml version="1.0" encoding="UTF-8" standalone="no"?>
<!-- Created with Inkscape (http://www.inkscape.org/) -->

<svg
   width="128"
   height="128"
   viewBox="0 0 128 128"
   version="1.1"
   id="svg1"
   xmlns="http://www.w3.org/2000/svg"
   xmlns:svg="http://www.w3.org/2000/svg">
  <path
     id="square1"
     style="fill:#e59024;fill-opacity:1;stroke:none"
     d="m 8,8 v 80 h 32 l 8,-8 H 16 V 16 h 64 v 32 l 8,-8 V 8 Z" />
  <path
     id="arrow1_tail"
     style="fill:#e59024;fill-opacity:1;stroke:none"
     d="m 28,26 -2,2 c -1,1 -1,3 0,4 l 14,14 c 1,1 3,1 4,0 l 2,-2 c 1,-1 1,-3 0,-4 L 32,26 c -1,-1 -3,-1 -4,0 z" />
  <path
     id="arrow1"
     style="fill:#e59024;fill-opacity:1;stroke:none"
     d="M 60,60 H 28 c -3,0 -3,-4 0,-4 h 8 c 8,-2 11,-5 13,-7 2,-2 5,-5 7,-13 v -8 c 0,-3 4,-3 4,0" />
  <path
     id="square2"
     style="fill:#c0c0c0;fill-opacity:1;stroke:none"
     d="M 120,120 V 40 H 88 l -8,8 h 32 v 64 H 48 V 80 l -8,8 v 32 z" />
  <path
     id="arrow2_tail"
     style="fill:#c0c0c0;fill-opacity:1;stroke:none"
     d="m 100,102 2,-2 c 1,-1 1,-3 0,-4 L 88,82 c -1,-1 -3,-1 -4,0 l -2,2 c -1,1 -1,3 0,4 l 14,14 c 1,1 3,1 4,0 z" />
  <path
     id="arrow2"
     style="fill:#c0c0c0;fill-opacity:1;stroke:none"
     d="m 68,68 h 32 c 3,0 3,4 0,4 h -8 c -8,2 -11,5 -13,7 -2,2 -5,5 -7,13 v 8 c 0,3 -4,3 -4,0" />
</svg>
