<?xml version="1.0" encoding="utf-8"?>
<!-- Generator: Adobe Illustrator 27.2.0, SVG Export Plug-In . SVG Version: 6.00 Build 0)  -->
<svg version="1.1" id="Layer_3" xmlns="http://www.w3.org/2000/svg" xmlns:xlink="http://www.w3.org/1999/xlink" x="0px" y="0px"
	 viewBox="0 0 128 128" enable-background="new 0 0 128 128" xml:space="preserve">
<path fill="none" stroke="#C0C0C0" stroke-width="8" stroke-miterlimit="10" d="M12,56"/>
<path fill="none" stroke="#C0C0C0" stroke-width="8" stroke-miterlimit="10" d="M12,40"/>
<path fill="none" stroke="#C0C0C0" stroke-width="8" stroke-miterlimit="10" d="M12,24"/>
<path fill="none" stroke="#C0C0C0" stroke-width="8" stroke-miterlimit="10" d="M24,12"/>
<line fill="none" stroke="#C0C0C0" stroke-width="10" stroke-linecap="round" stroke-miterlimit="10" x1="27" y1="27" x2="40" y2="40"/>
<polyline fill="#C0C0C0" points="28,60 60,60 60,28 56,28 56,40 50,46 46,50 40,56 28,56 28,60 "/>
<path fill="none" stroke="#C0C0C0" stroke-width="8" stroke-miterlimit="10" d="M52,56"/>
<path fill="none" stroke="#C0C0C0" stroke-width="8" stroke-miterlimit="10" d="M52,40"/>
<line fill="none" stroke="#E59024" stroke-width="10" stroke-linecap="round" stroke-miterlimit="10" x1="101" y1="101" x2="88" y2="88"/>
<polyline fill="#E59024" points="100,68 68,68 68,100 72,100 72,88 78,82 82,78 88,72 100,72 100,68 "/>
<path fill="none" stroke="#C0C0C0" stroke-width="8" stroke-miterlimit="10" d="M76,72"/>
<path fill="none" stroke="#C0C0C0" stroke-width="8" stroke-miterlimit="10" d="M76,88"/>
<polyline fill="none" stroke="#E59024" stroke-width="8" stroke-linecap="round" stroke-miterlimit="10" points="44,116 116,116 
	116,44 84,44 "/>
<polyline fill="none" stroke="#C0C0C0" stroke-width="8" stroke-linecap="round" stroke-miterlimit="10" points="84,44 84,12 12,12 
	12,84 44,84 44,116 "/>
</svg>
