<?xml version="1.0" encoding="UTF-8" standalone="no"?>
<!-- Created with Inkscape (http://www.inkscape.org/) -->

<svg
   width="128"
   height="128"
   viewBox="0 0 128 128"
   version="1.1"
   id="svg1"
   xmlns="http://www.w3.org/2000/svg"
   xmlns:svg="http://www.w3.org/2000/svg">
  <path
     id="dashed_lines"
     style="fill:#c0c0c0;fill-opacity:1;stroke:none"
     d="m 8,8 v 16 h 8 v -8 h 8 V 8 Z m 32,0 v 8 H 56 V 8 Z m 32,0 v 8 H 88 V 8 Z m 32,0 v 8 h 8 v 8 h 8 V 8 Z M 8,40 v 16 h 8 V 40 Z m 104,0 v 16 h 8 V 40 Z m 0,32 v 16 h 8 V 72 Z m 0,32 v 8 h -8 v 8 h 16 v -16 z m -40,8 v 8 h 16 v -8 z" />
  <path
     id="brush"
     style="fill:#e59024;fill-opacity:1;stroke:none"
     d="m 12,72 h 40 c 2,0 4,2 4,4 v 40 c 0,2 -2,4 -4,4 H 12 c -2,0 -4,-2 -4,-4 V 76 c 0,-2 2,-4 4,-4 z" />
  <path
     id="arrow_tail"
     style="fill:#c0c0c0;fill-opacity:1;stroke:none"
     d="m 88,38 2,2 c 1,1 1,3 0,4 L 76,58 c -1,1 -3,1 -4,0 l -2,-2 c -1,-1 -1,-3 0,-4 L 84,38 c 1,-1 3,-1 4,0 z" />
  <path
     id="arrow"
     style="fill:#c0c0c0;fill-opacity:1;stroke:none"
     d="M 104,24 H 72 c -3,0 -3,4 0,4 h 8 c 8,2 11,5 13,7 2,2 5,5 7,13 v 8 c 0,3 4,3 4,0" />
</svg>
