<?xml version="1.0" encoding="utf-8"?>
<!-- Generator: Adobe Illustrator 27.2.0, SVG Export Plug-In . SVG Version: 6.00 Build 0)  -->
<svg version="1.1" id="Layer_3" xmlns="http://www.w3.org/2000/svg" xmlns:xlink="http://www.w3.org/1999/xlink" x="0px" y="0px"
	 viewBox="0 0 128 128" enable-background="new 0 0 128 128" xml:space="preserve">
<path fill="none" stroke="#8E8E8E" stroke-width="12.0792" stroke-miterlimit="10" d="M114.77,73.7c0-12.08,0-24.16,0-36.24
	C105.1,27,95.44,16.51,85.78,6.05c-26.57,0-53.15,0-79.72,0c0,24.96,0,52.35,0,77.31c11.28,11.28,20.12,20.12,31.41,31.41
	c11.28,0,24.96,0,36.24,0"/>
<path fill="none" stroke="#8E8E8E" stroke-width="12.0792" stroke-miterlimit="10" d="M114.77,37.46H37.46c0,25.78,0,50.32,0,76.1"
	/>
<line fill="none" stroke="#8E8E8E" stroke-width="12.0792" stroke-miterlimit="10" x1="37.46" y1="37.46" x2="6.05" y2="6.05"/>
<line fill="none" stroke="#8E8E8E" stroke-width="12.0792" stroke-miterlimit="10" x1="73.7" y1="73.7" x2="100.27" y2="100.27"/>
<path fill="#8E8E8E" d="M128.05,128.05c0-12.88,0-25.78,0-38.65c-2.42,0-4.83,0-7.25,0c-0.39,21.07-11.21,31.16-31.41,31.41
	c0,2.42,0,4.83,0,7.25C102.28,128.05,115.18,128.05,128.05,128.05z"/>
</svg>
