<?xml version="1.0" encoding="utf-8"?>
<!-- Generator: Adobe Illustrator 27.2.0, SVG Export Plug-In . SVG Version: 6.00 Build 0)  -->
<svg version="1.1" id="Layer_3" xmlns="http://www.w3.org/2000/svg" xmlns:xlink="http://www.w3.org/1999/xlink" x="0px" y="0px"
	 viewBox="0 0 128 128" enable-background="new 0 0 128 128" xml:space="preserve">
<circle fill="#C0C0C0" cx="64" cy="64" r="16"/>
<path fill="#C0C0C0" d="M118.36,59.16C110.28,48.5,89,24,64,24S17.72,48.5,9.64,59.16c-2.18,2.88-2.18,6.8,0,9.68
	C17.72,79.5,39,104,64,104s46.28-24.5,54.36-35.16C120.54,65.96,120.54,62.04,118.36,59.16z M64,92c-15.46,0-28-12.54-28-28
	s12.54-28,28-28s28,12.54,28,28S79.46,92,64,92z"/>
<polyline fill="#8E8E8E" points="94,120 120,120 120,94 "/>
</svg>
