<?xml version="1.0" encoding="UTF-8" standalone="no"?>
<!-- Created with Inkscape (http://www.inkscape.org/) -->

<svg
   width="128"
   height="128"
   viewBox="0 0 128 128"
   version="1.1"
   id="svg1"
   xmlns="http://www.w3.org/2000/svg"
   xmlns:svg="http://www.w3.org/2000/svg">
  <path
     id="eye"
     style="fill:#c0c0c0;fill-opacity:1;stroke:none"
     d="M 64,24 C 36,24 8,60 8,64 c 0,4 28,40 56,40 28,0 56,-36 56,-40 0,-4 -28,-40 -56,-40 z m 0,12 C 79.5,36 92,48.5 92,64 92,79.5 79.5,92 64,92 48.5,92 36,79.5 36,64 36,48.5 48.5,36 64,36 Z m 0,12 c -9,0 -16,7 -16,16 0,9 7,16 16,16 9,0 16,-7 16,-16 0,-9 -7,-16 -16,-16 z" />
  <path
     id="arrow"
     style="fill:#c0c0c0;fill-opacity:1;stroke:none"
     d="m 120,92 v 28 H 92 Z" />
</svg>
