<?xml version="1.0" encoding="UTF-8" standalone="no"?>
<!-- Created with Inkscape (http://www.inkscape.org/) -->

<svg
   width="128"
   height="128"
   viewBox="0 0 128 128"
   version="1.1"
   id="svg1"
   xmlns="http://www.w3.org/2000/svg"
   xmlns:svg="http://www.w3.org/2000/svg">
  <path
     id="padlock_top"
     style="fill:#c0c0c0;fill-opacity:1;stroke:none"
     d="M 64,8 C 51,8 40,19 40,32 v 20 h 8 V 32 c 0,-9 7,-16 16,-16 9,0 16,7 16,16 v 20 h 8 V 32 C 88,19 77,8 64,8 Z" />
  <path
     id="padlock_bottom"
     style="fill:#c0c0c0;fill-opacity:1;stroke:none"
     d="m 24,56 v 56 c 0,4.5 3.5,8 8,8 h 64 c 4.5,0 8,-3.5 8,-8 V 56 Z m 16,8 h 48 v 48 H 40 Z" />
  <path
     id="texture1"
     style="fill:#c0c0c0;fill-opacity:0.15;stroke:none"
     d="m 40,64 h 48 v 48 H 40 Z" />
  <path
     id="texture2"
     style="fill:#c0c0c0;fill-opacity:1;stroke:none"
     d="M 64,68 V 88 H 44 V 68 Z m 0,20 h 20 v 20 H 64 Z" />
</svg>
