<?xml version="1.0" encoding="UTF-8" standalone="no"?>
<!-- Created with Inkscape (http://www.inkscape.org/) -->

<svg
   width="128"
   height="128"
   viewBox="0 0 128 128"
   version="1.1"
   id="svg1"
   xmlns="http://www.w3.org/2000/svg"
   xmlns:svg="http://www.w3.org/2000/svg">
  <path
     id="arrow_head"
     style="fill:#c0c0c0;fill-opacity:1;stroke:none"
     d="m 12,32 24,24 c 2.5,2.5 6,-1 3.5,-3.5 L 34,47 c -5,-6 -5,-12 -5,-15 0,-3 0,-9 5,-15 l 5.5,-5.5 C 42,9 38.48,5.52 36,8" />
  <path
     id="arrow_tail"
     style="fill:#c0c0c0;fill-opacity:1;stroke:none"
     d="m 36,30 v 4 c 0,1 1,2 2,2 h 34 c 20,0 36,16 36,36 0,20 -16,36 -36,36 H 58 c -1,0 -2,1 -2,2 v 4 c 0,1 1,2 2,2 H 72 C 96.5,116 116,96.5 116,72 116,47.5 96,28 72,28 H 38 c -1,0 -2,1 -2,2 z" />
</svg>
