<?xml version="1.0" encoding="UTF-8" standalone="no"?>
<!-- Created with Inkscape (http://www.inkscape.org/) -->

<svg
   width="128"
   height="128"
   viewBox="0 0 128 128"
   version="1.1"
   id="svg1"
   xmlns="http://www.w3.org/2000/svg"
   xmlns:svg="http://www.w3.org/2000/svg">
  <path
     id="clip"
     style="fill:#c0c0c0;fill-opacity:1;stroke:none"
     d="m 8,8 v 24 h 8 V 16 H 32 V 8 Z m 44,0 v 8 H 76 V 8 Z m 44,0 v 8 h 16 v 16 h 8 V 8 Z M 8,96 v 24 h 24 v -8 H 16 V 96 Z m 104,0 v 16 H 96 v 8 h 24 V 96 Z m -60,16 v 8 h 24 v -8 z" />
  <path
     id="cam"
     style="fill:#c0c0c0;fill-opacity:1;stroke:none"
     d="m 28,44 v 12 h -8 v -4 c 0,-2 -2,-4 -4,-4 h -4 v 24 h 4 c 2,0 4,-2 4,-4 v -4 h 8 v 4 c 0,9 7,16 16,16 h 32 c 4.5,0 8,-3.5 8,-8 v -8 h 6 c 2,0 4,2 6,4 l 8,8 c 2,2 4,4 6,4 h 6 V 44 h -6 c -2,0 -4,2 -6,4 l -8,8 c -2,2 -4,4 -6,4 H 84 V 44 Z" />
</svg>
