<?xml version="1.0" encoding="utf-8"?>
<!-- Generator: Adobe Illustrator 27.2.0, SVG Export Plug-In . SVG Version: 6.00 Build 0)  -->
<svg version="1.1" id="Layer_3" xmlns="http://www.w3.org/2000/svg" xmlns:xlink="http://www.w3.org/1999/xlink" x="0px" y="0px"
	 viewBox="0 0 128 128" enable-background="new 0 0 128 128" xml:space="preserve">
<line fill="none" stroke="#C0C0C0" stroke-width="8" stroke-miterlimit="10" x1="52" y1="116" x2="76" y2="116"/>
<line fill="none" stroke="#C0C0C0" stroke-width="8" stroke-miterlimit="10" x1="52" y1="12" x2="76" y2="12"/>
<polyline fill="none" stroke="#C0C0C0" stroke-width="8" stroke-miterlimit="10" points="96,116 116,116 116,96 "/>
<polyline fill="none" stroke="#C0C0C0" stroke-width="8" stroke-miterlimit="10" points="116,32 116,12 96,12 "/>
<polyline fill="none" stroke="#C0C0C0" stroke-width="8" stroke-miterlimit="10" points="32,12 12,12 12,32 "/>
<polyline fill="none" stroke="#C0C0C0" stroke-width="8" stroke-miterlimit="10" points="12,96 12,116 32,116 "/>
<path fill="#C0C0C0" d="M116,84V44h-6l0,0c0,2.2-1.8,4-4,4h-4L90,60h-6V44H28v12h-8v-8h-8v24h8v-8h8v10l10,10h36l10-10v-6h6l12,12
	h4.24c2.08,0,3.76,1.68,3.76,3.76V84H116z"/>
</svg>
