<?xml version="1.0" encoding="UTF-8" standalone="no"?>
<!-- Created with Inkscape (http://www.inkscape.org/) -->

<svg
   width="144"
   height="80"
   viewBox="0 0 144 80"
   version="1.1"
   id="svg1"
   xmlns="http://www.w3.org/2000/svg"
   xmlns:svg="http://www.w3.org/2000/svg">
  <path
     id="base_bkgr"
     style="fill:#000000;fill-opacity:0.15;stroke:none"
     d="M 2,2 H 142 V 78 H 2 Z" />
  <path
     id="base_frame"
     style="fill:#000000;fill-opacity:1;stroke:none"
     d="M 0,0 V 80 H 144 V 0 Z M 2,2 H 142 V 78 H 2 Z" />
  <path
     id="2d_bkgr"
     style="fill:#606060;fill-opacity:1;stroke:none"
     d="M 8,8 H 68 V 50 H 8 Z" />
  <path
     id="2d_frame"
     style="fill:#000000;fill-opacity:1;stroke:none"
     d="M 6,6 V 52 H 70 V 6 Z M 8,8 H 68 V 50 H 8 Z" />
  <path
     id="2d_grid"
     style="fill:#ffffff;fill-opacity:0.25;stroke:none"
     d="m 12,8 v 4 H 8 v 2 h 4 v 6 H 8 v 2 h 4 v 6 H 8 v 2 h 4 v 6 H 8 v 2 h 4 v 6 H 8 v 2 h 4 v 4 h 2 v -4 h 6 v 4 h 2 v -4 h 6 v 4 h 2 v -4 h 6 v 4 h 2 v -4 h 6 v 4 h 2 v -4 h 6 v 4 h 2 v -4 h 6 v 4 h 2 v -4 h 6 v -2 h -6 v -6 h 6 v -2 h -6 v -6 h 6 v -2 h -6 v -6 h 6 v -2 h -6 v -6 h 6 V 12 H 62 V 8 h -2 v 4 H 54 V 8 h -2 v 4 H 46 V 8 h -2 v 4 H 38 V 8 h -2 v 4 H 30 V 8 h -2 v 4 H 22 V 8 h -2 v 4 H 14 V 8 Z m 2,6 h 6 v 6 h -6 z m 8,0 h 6 v 6 h -6 z m 8,0 h 6 v 6 h -6 z m 8,0 h 6 v 6 h -6 z m 8,0 h 6 v 6 h -6 z m 8,0 h 6 v 6 h -6 z m -40,8 h 6 v 6 h -6 z m 8,0 h 6 v 6 h -6 z m 8,0 h 6 v 6 h -6 z m 8,0 h 6 v 6 h -6 z m 8,0 h 6 v 6 h -6 z m 8,0 h 6 v 6 h -6 z m -40,8 h 6 v 6 h -6 z m 8,0 h 6 v 6 h -6 z m 8,0 h 6 v 6 h -6 z m 8,0 h 6 v 6 h -6 z m 8,0 h 6 v 6 h -6 z m 8,0 h 6 v 6 h -6 z m -40,8 h 6 v 6 h -6 z m 8,0 h 6 v 6 h -6 z m 8,0 h 6 v 6 h -6 z m 8,0 h 6 v 6 h -6 z m 8,0 h 6 v 6 h -6 z m 8,0 h 6 v 6 h -6 z" />
  <path
     id="console_bkgr"
     style="fill:#606060;fill-opacity:1;stroke:none"
     d="M 8,58 H 68 V 72 H 8 Z" />
  <path
     id="console_frame"
     style="fill:#000000;fill-opacity:1;stroke:none"
     d="M 6,56 V 74 H 70 V 56 Z m 2,2 H 68 V 72 H 8 Z" />
  <path
     id="console_text"
     style="fill:#ffffff;fill-opacity:0.25;stroke:none"
     d="m 12,60 v 2 h 10 v -2 z m 16,0 v 2 h 20 v -2 z m 26,0 v 2 h 10 v -2 z m -42,4 v 2 h 6 v -2 z m 10,0 v 2 h 14 v -2 z m 18,0 v 2 h 12 v -2 z m 16,0 v 2 h 8 v -2 z m -44,4 v 2 h 14 v -2 z m 18,0 v 2 h 14 v -2 z m 18,0 v 2 h 16 v -2 z" />
  <path
     id="3d_bkgr"
     style="fill:#606060;fill-opacity:1;stroke:none"
     d="m 76,8 h 60 V 36 H 76 Z" />
  <path
     id="3d_frame"
     style="fill:#000000;fill-opacity:1;stroke:none"
     d="m 74,6 v 32 h 64 V 6 Z m 2,2 h 60 V 36 H 76 Z" />
  <path
     id="3d_cam1a"
     style="fill:#ffffff;fill-opacity:0.50;stroke:none"
     d="m 80,12 v 12 h 4 v -4 h 4 v -4 h -4 v -4 z" />
  <path
     id="3d_cam1b"
     style="fill:#00eded;fill-opacity:0.60;stroke:none"
     d="m 88,12 v 14 l 6,6 h 22 V 12 h -4 V 28 H 96 L 92,24 V 12 Z" />
  <path
     id="3d_cam1c"
     style="fill:#ffffff;fill-opacity:0.50;stroke:none"
     d="m 92,12 h 20 v 4 H 92 Z" />
  <path
     id="3d_cam1d"
     style="fill:#ffffff;fill-opacity:0.50;stroke:none"
     d="m 128,12 -8,8 h -4 v 4 h 4 l 8,8 h 4 V 12 Z m 0,4 v 12 l -4,-4 v -4 z" />
  <path
     id="tb_bkgr"
     style="fill:#606060;fill-opacity:1;stroke:none"
     d="m 76,44 h 60 V 72 H 76 Z" />
  <path
     id="tb_frame"
     style="fill:#000000;fill-opacity:1;stroke:none"
     d="m 74,42 v 32 h 64 V 42 Z m 2,2 h 60 V 72 H 76 Z" />
  <path
     id="tb_2x_frames"
     style="fill:#000000;fill-opacity:1;stroke:none"
     d="m 80,46 v 24 h 24 V 46 Z m 28,0 v 24 h 24 V 46 Z m -26,2 h 20 V 68 H 82 Z m 28,0 h 20 v 20 h -20 z" />
  <path
     id="tb_texture1a"
     style="fill:#c386c3;fill-opacity:1;stroke:none"
     d="m 82,48 h 20 V 68 H 82 Z" />
  <path
     id="tb_texture1b"
     style="fill:#744574;fill-opacity:1;stroke:none"
     d="m 92,48 v 10 h 10 V 48 Z m 0,10 H 82 v 10 h 10 z" />
  <path
     id="tb_texture2a"
     style="fill:#75b591;fill-opacity:1;stroke:none"
     d="m 110,48 h 20 v 20 h -20 z" />
  <path
     id="tb_texture2b"
     style="fill:#447859;fill-opacity:1;stroke:none"
     d="m 120,48 v 10 h 10 V 48 Z m 0,10 h -10 v 10 h 10 z" />
</svg>
