<?xml version="1.0" encoding="UTF-8" standalone="no"?>
<!-- Created with Inkscape (http://www.inkscape.org/) -->

<svg
   width="144"
   height="80"
   viewBox="0 0 144 80"
   version="1.1"
   id="svg1"
   xmlns="http://www.w3.org/2000/svg"
   xmlns:svg="http://www.w3.org/2000/svg">
  <path
     id="base_bkgr"
     style="fill:#000000;fill-opacity:0.15;stroke:none"
     d="M 2,2 H 142 V 78 H 2 Z" />
  <path
     id="base_frame"
     style="fill:#000000;fill-opacity:1;stroke:none"
     d="M 0,0 V 80 H 144 V 0 Z M 2,2 H 142 V 78 H 2 Z" />
  <path
     id="2d_bkgr"
     style="fill:#606060;fill-opacity:1;stroke:none"
     d="m 76,8 v 28 h 60 V 8 Z M 8,44 V 72 H 68 V 44 Z m 68,0 v 28 h 60 V 44 Z" />
  <path
     id="2d_frame"
     style="fill:#000000;fill-opacity:1;stroke:none"
     d="m 74,6 v 32 h 64 V 6 Z m 2,2 h 60 V 36 H 76 Z M 6,42 V 74 H 70 V 42 Z m 68,0 v 32 h 64 V 42 Z M 8,44 H 68 V 72 H 8 Z m 68,0 h 60 V 72 H 76 Z" />
  <path
     id="2d_grid"
     style="fill:#ffffff;fill-opacity:0.25;stroke:none"
     d="m 80,8 v 4 h -4 v 2 h 4 v 6 h -4 v 2 h 4 v 6 h -4 v 2 h 4 v 6 h 2 v -6 h 6 v 6 h 2 v -6 h 6 v 6 h 2 v -6 h 6 v 6 h 2 v -6 h 6 v 6 h 2 v -6 h 6 v 6 h 2 v -6 h 6 v 6 h 2 v -6 h 6 v -2 h -6 v -6 h 6 v -2 h -6 v -6 h 6 v -2 h -6 V 8 h -2 v 4 h -6 V 8 h -2 v 4 h -6 V 8 h -2 v 4 h -6 V 8 h -2 v 4 H 98 V 8 h -2 v 4 H 90 V 8 h -2 v 4 H 82 V 8 Z m 2,6 h 6 v 6 h -6 z m 8,0 h 6 v 6 h -6 z m 8,0 h 6 v 6 h -6 z m 8,0 h 6 v 6 h -6 z m 8,0 h 6 v 6 h -6 z m 8,0 h 6 v 6 h -6 z m -40,8 h 6 v 6 h -6 z m 8,0 h 6 v 6 h -6 z m 8,0 h 6 v 6 h -6 z m 8,0 h 6 v 6 h -6 z m 8,0 h 6 v 6 h -6 z m 8,0 h 6 v 6 h -6 z M 12,44 v 4 H 8 v 2 h 4 v 6 H 8 v 2 h 4 v 6 H 8 v 2 h 4 v 6 h 2 v -6 h 6 v 6 h 2 v -6 h 6 v 6 h 2 v -6 h 6 v 6 h 2 v -6 h 6 v 6 h 2 v -6 h 6 v 6 h 2 v -6 h 6 v 6 h 2 v -6 h 6 v -2 h -6 v -6 h 6 v -2 h -6 v -6 h 6 v -2 h -6 v -4 h -2 v 4 h -6 v -4 h -2 v 4 h -6 v -4 h -2 v 4 h -6 v -4 h -2 v 4 h -6 v -4 h -2 v 4 h -6 v -4 h -2 v 4 h -6 v -4 z m 68,0 v 4 h -4 v 2 h 4 v 6 h -4 v 2 h 4 v 6 h -4 v 2 h 4 v 6 h 2 v -6 h 6 v 6 h 2 v -6 h 6 v 6 h 2 v -6 h 6 v 6 h 2 v -6 h 6 v 6 h 2 v -6 h 6 v 6 h 2 v -6 h 6 v 6 h 2 v -6 h 6 v -2 h -6 v -6 h 6 v -2 h -6 v -6 h 6 v -2 h -6 v -4 h -2 v 4 h -6 v -4 h -2 v 4 h -6 v -4 h -2 v 4 h -6 v -4 h -2 v 4 h -6 v -4 h -2 v 4 h -6 v -4 h -2 v 4 h -6 v -4 z m -66,6 h 6 v 6 h -6 z m 8,0 h 6 v 6 h -6 z m 8,0 h 6 v 6 h -6 z m 8,0 h 6 v 6 h -6 z m 8,0 h 6 v 6 h -6 z m 8,0 h 6 v 6 h -6 z m 28,0 h 6 v 6 h -6 z m 8,0 h 6 v 6 h -6 z m 8,0 h 6 v 6 h -6 z m 8,0 h 6 v 6 h -6 z m 8,0 h 6 v 6 h -6 z m 8,0 h 6 v 6 h -6 z M 14,58 h 6 v 6 h -6 z m 8,0 h 6 v 6 h -6 z m 8,0 h 6 v 6 h -6 z m 8,0 h 6 v 6 h -6 z m 8,0 h 6 v 6 h -6 z m 8,0 h 6 v 6 h -6 z m 28,0 h 6 v 6 h -6 z m 8,0 h 6 v 6 h -6 z m 8,0 h 6 v 6 h -6 z m 8,0 h 6 v 6 h -6 z m 8,0 h 6 v 6 h -6 z m 8,0 h 6 v 6 h -6 z" />
  <path
     id="3d_bkgr"
     style="fill:#606060;fill-opacity:1;stroke:none"
     d="M 8,8 H 68 V 36 H 8 Z" />
  <path
     id="3d_frame"
     style="fill:#000000;fill-opacity:1;stroke:none"
     d="M 6,6 V 38 H 70 V 6 Z M 8,8 H 68 V 36 H 8 Z" />
  <path
     id="3d_cam1a"
     style="fill:#ffffff;fill-opacity:0.50;stroke:none"
     d="m 12,12 v 12 h 4 v -4 h 4 v -4 h -4 v -4 z" />
  <path
     id="3d_cam1b"
     style="fill:#00eded;fill-opacity:0.60;stroke:none"
     d="m 20,12 v 14 l 6,6 H 48 V 12 H 44 V 28 H 28 L 24,24 V 12 Z" />
  <path
     id="3d_cam1c"
     style="fill:#ffffff;fill-opacity:0.50;stroke:none"
     d="m 24,12 h 20 v 4 H 24 Z" />
  <path
     id="3d_cam1d"
     style="fill:#ffffff;fill-opacity:0.50;stroke:none"
     d="m 60,12 -8,8 h -4 v 4 h 4 l 8,8 h 4 V 12 Z m 0,4 v 12 l -4,-4 v -4 z" />
</svg>
