<?xml version="1.0" encoding="utf-8"?>
<!-- Generator: Adobe Illustrator 27.2.0, SVG Export Plug-In . SVG Version: 6.00 Build 0)  -->
<svg version="1.1" id="Layer_1" xmlns="http://www.w3.org/2000/svg" xmlns:xlink="http://www.w3.org/1999/xlink" x="0px" y="0px"
	 viewBox="0 0 144 80" enable-background="new 0 0 144 80" xml:space="preserve">
<rect fill="#9A9A9A" width="144" height="80"/>
<rect x="2" y="2" fill="#545454" width="140" height="76"/>
<rect x="6" y="6" width="64" height="32"/>
<rect x="6" y="42" width="64" height="32"/>
<rect x="74" y="56" width="64" height="18"/>
<rect x="74" y="6" width="64" height="46"/>
<rect x="76" y="58" fill="#404040" width="60" height="14"/>
<rect x="8" y="44" fill="#404040" width="60" height="28"/>
<rect x="8" y="8" fill="#404040" width="60" height="28"/>
<rect x="12" y="46" fill="#B4B4B4" width="24" height="24"/>
<rect x="40" y="46" fill="#B4B4B4" width="24" height="24"/>
<rect x="42" y="48" fill="#404040" width="20" height="20"/>
<rect x="14" y="48" fill="#404040" width="20" height="20"/>
<rect x="52" y="58" fill="#75B591" width="8" height="8"/>
<rect x="44" y="50" fill="#75B591" width="8" height="8"/>
<rect x="52" y="50" fill="#447859" width="8" height="8"/>
<rect x="44" y="58" fill="#447859" width="8" height="8"/>
<rect x="24" y="58" fill="#C386C3" width="8" height="8"/>
<rect x="16" y="50" fill="#C386C3" width="8" height="8"/>
<rect x="24" y="50" fill="#744574" width="8" height="8"/>
<rect x="16" y="58" fill="#744574" width="8" height="8"/>
<rect x="80" y="60" fill="#7A7A7A" width="10" height="2"/>
<rect x="96" y="60" fill="#7A7A7A" width="20" height="2"/>
<rect x="122" y="60" fill="#7A7A7A" width="10" height="2"/>
<rect x="124" y="64" fill="#7A7A7A" width="8" height="2"/>
<rect x="108" y="64" fill="#7A7A7A" width="12" height="2"/>
<rect x="90" y="64" fill="#7A7A7A" width="14" height="2"/>
<rect x="80" y="64" fill="#7A7A7A" width="6" height="2"/>
<rect x="76" y="8" fill="#767676" width="60" height="42"/>
<rect x="80" y="68" fill="#7A7A7A" width="14" height="2"/>
<rect x="98" y="68" fill="#7A7A7A" width="14" height="2"/>
<rect x="116" y="68" fill="#7A7A7A" width="16" height="2"/>
<rect x="80" y="8" fill="#8C8C8C" width="2" height="42"/>
<rect x="88" y="8" fill="#8C8C8C" width="2" height="42"/>
<rect x="96" y="8" fill="#8C8C8C" width="2" height="42"/>
<rect x="104" y="8" fill="#8C8C8C" width="2" height="42"/>
<rect x="112" y="8" fill="#8C8C8C" width="2" height="42"/>
<rect x="120" y="8" fill="#8C8C8C" width="2" height="42"/>
<rect x="128" y="8" fill="#8C8C8C" width="2" height="42"/>
<rect x="76" y="44" fill="#8C8C8C" width="60" height="2"/>
<rect x="76" y="36" fill="#8C8C8C" width="60" height="2"/>
<rect x="76" y="28" fill="#8C8C8C" width="60" height="2"/>
<rect x="76" y="20" fill="#8C8C8C" width="60" height="2"/>
<rect x="76" y="12" fill="#8C8C8C" width="60" height="2"/>
<rect x="24" y="12" fill="#939393" width="20" height="4"/>
<polygon fill="#B4B4B4" points="12,22 12,14 16,14 16,16 20,16 20,20 16,20 16,22 "/>
<polygon fill="#7AB4B4" points="20,12 20,26 26,32 48,32 48,12 44,12 44,28 28,28 24,24 24,12 "/>
<rect x="12" y="22" fill="#9F9F9F" width="4" height="2"/>
<rect x="12" y="12" fill="#9F9F9F" width="4" height="2"/>
<path fill="#B4B4B4" d="M60,12l-2,2l-8,6l-2.02-0.02L48,24h2l8,6l1.92,2H64V12H60z M60,26l-6-4l6-4V26z"/>
</svg>
