<?xml version="1.0" encoding="utf-8"?>
<!-- Generator: Adobe Illustrator 27.2.0, SVG Export Plug-In . SVG Version: 6.00 Build 0)  -->
<svg version="1.1" id="Layer_1" xmlns="http://www.w3.org/2000/svg" xmlns:xlink="http://www.w3.org/1999/xlink" x="0px" y="0px"
	 viewBox="0 0 144 80" enable-background="new 0 0 144 80" xml:space="preserve">
<rect fill="#9A9A9A" width="144" height="80"/>
<rect x="2" y="2" fill="#545454" width="140" height="76"/>
<rect x="74" y="6" width="64" height="32"/>
<rect x="74" y="42" width="64" height="32"/>
<rect x="6" y="56" width="64" height="18"/>
<rect x="6" y="6" width="64" height="46"/>
<rect x="8" y="58" fill="#404040" width="60" height="14"/>
<rect x="76" y="44" fill="#404040" width="60" height="28"/>
<rect x="76" y="8" fill="#404040" width="60" height="28"/>
<rect x="80" y="46" fill="#B4B4B4" width="24" height="24"/>
<rect x="108" y="46" fill="#B4B4B4" width="24" height="24"/>
<rect x="110" y="48" fill="#404040" width="20" height="20"/>
<rect x="82" y="48" fill="#404040" width="20" height="20"/>
<rect x="120" y="58" fill="#75B591" width="8" height="8"/>
<rect x="112" y="50" fill="#75B591" width="8" height="8"/>
<rect x="120" y="50" fill="#447859" width="8" height="8"/>
<rect x="112" y="58" fill="#447859" width="8" height="8"/>
<rect x="92" y="58" fill="#C386C3" width="8" height="8"/>
<rect x="84" y="50" fill="#C386C3" width="8" height="8"/>
<rect x="92" y="50" fill="#744574" width="8" height="8"/>
<rect x="84" y="58" fill="#744574" width="8" height="8"/>
<rect x="12" y="60" fill="#7A7A7A" width="10" height="2"/>
<rect x="28" y="60" fill="#7A7A7A" width="20" height="2"/>
<rect x="54" y="60" fill="#7A7A7A" width="10" height="2"/>
<rect x="56" y="64" fill="#7A7A7A" width="8" height="2"/>
<rect x="40" y="64" fill="#7A7A7A" width="12" height="2"/>
<rect x="22" y="64" fill="#7A7A7A" width="14" height="2"/>
<rect x="12" y="64" fill="#7A7A7A" width="6" height="2"/>
<rect x="8" y="8" fill="#767676" width="60" height="42"/>
<rect x="12" y="68" fill="#7A7A7A" width="14" height="2"/>
<rect x="30" y="68" fill="#7A7A7A" width="14" height="2"/>
<rect x="48" y="68" fill="#7A7A7A" width="16" height="2"/>
<rect x="12" y="8" fill="#8C8C8C" width="2" height="42"/>
<rect x="20" y="8" fill="#8C8C8C" width="2" height="42"/>
<rect x="28" y="8" fill="#8C8C8C" width="2" height="42"/>
<rect x="36" y="8" fill="#8C8C8C" width="2" height="42"/>
<rect x="44" y="8" fill="#8C8C8C" width="2" height="42"/>
<rect x="52" y="8" fill="#8C8C8C" width="2" height="42"/>
<rect x="60" y="8" fill="#8C8C8C" width="2" height="42"/>
<rect x="8" y="44" fill="#8C8C8C" width="60" height="2"/>
<rect x="8" y="36" fill="#8C8C8C" width="60" height="2"/>
<rect x="8" y="28" fill="#8C8C8C" width="60" height="2"/>
<rect x="8" y="20" fill="#8C8C8C" width="60" height="2"/>
<rect x="8" y="12" fill="#8C8C8C" width="60" height="2"/>
<rect x="92" y="12" fill="#939393" width="20" height="4"/>
<polygon fill="#B4B4B4" points="80,22 80,14 84,14 84,16 88,16 88,20 84,20 84,22 "/>
<polygon fill="#7AB4B4" points="88,12 88,26 94,32 116,32 116,12 112,12 112,28 96,28 92,24 92,12 "/>
<rect x="80" y="22" fill="#9F9F9F" width="4" height="2"/>
<rect x="80" y="12" fill="#9F9F9F" width="4" height="2"/>
<path fill="#B4B4B4" d="M128,12l-2,2l-8,6l-2.02-0.02L116,24h2l8,6l1.92,2H132V12H128z M128,26l-5.7-2.86
	c-0.94-0.48-0.94-1.82,0-2.3L128,18V26z"/>
</svg>
