<?xml version="1.0" encoding="utf-8"?>
<!-- Generator: Adobe Illustrator 27.2.0, SVG Export Plug-In . SVG Version: 6.00 Build 0)  -->
<svg version="1.1" id="Layer_1" xmlns="http://www.w3.org/2000/svg" xmlns:xlink="http://www.w3.org/1999/xlink" x="0px" y="0px"
	 viewBox="0 0 144 80" enable-background="new 0 0 144 80" xml:space="preserve">
<rect fill="#9A9A9A" width="144" height="80"/>
<rect x="2" y="2" fill="#545454" width="140" height="76"/>
<rect x="6" y="6" width="64" height="32"/>
<rect x="74" y="6" width="64" height="32"/>
<rect x="8" y="8" fill="#404040" width="60" height="28"/>
<rect x="76" y="8" fill="#767676" width="60" height="28"/>
<rect x="80" y="8" fill="#8C8C8C" width="2" height="28"/>
<rect x="88" y="8" fill="#8C8C8C" width="2" height="28"/>
<rect x="96" y="8" fill="#8C8C8C" width="2" height="28"/>
<rect x="104" y="8" fill="#8C8C8C" width="2" height="28"/>
<rect x="112" y="8" fill="#8C8C8C" width="2" height="28"/>
<rect x="120" y="8" fill="#8C8C8C" width="2" height="28"/>
<rect x="128" y="8" fill="#8C8C8C" width="2" height="28"/>
<rect x="76" y="28" fill="#8C8C8C" width="60" height="2"/>
<rect x="76" y="20" fill="#8C8C8C" width="60" height="2"/>
<rect x="76" y="12" fill="#8C8C8C" width="60" height="2"/>
<rect x="24" y="12" fill="#939393" width="20" height="4"/>
<polygon fill="#B4B4B4" points="12,22 12,14 16,14 16,16 20,16 20,20 16,20 16,22 "/>
<polygon fill="#7AB4B4" points="20,12 20,26 26,32 48,32 48,12 44,12 44,28 28,28 24,24 24,12 "/>
<rect x="12" y="22" fill="#9F9F9F" width="4" height="2"/>
<rect x="12" y="12" fill="#9F9F9F" width="4" height="2"/>
<path fill="#B4B4B4" d="M60,12l-2,2l-8,6l-2.02-0.02L48,24h2l8,6l1.92,2H64V12H60z M60,26l-5.76-2.88c-0.92-0.46-0.92-1.78,0-2.24
	L60,18V26z"/>
<rect x="74" y="42" width="64" height="32"/>
<rect x="76" y="44" fill="#767676" width="60" height="28"/>
<rect x="80" y="44" fill="#8C8C8C" width="2" height="28"/>
<rect x="88" y="44" fill="#8C8C8C" width="2" height="28"/>
<rect x="96" y="44" fill="#8C8C8C" width="2" height="28"/>
<rect x="104" y="44" fill="#8C8C8C" width="2" height="28"/>
<rect x="112" y="44" fill="#8C8C8C" width="2" height="28"/>
<rect x="120" y="44" fill="#8C8C8C" width="2" height="28"/>
<rect x="128" y="44" fill="#8C8C8C" width="2" height="28"/>
<rect x="76" y="64" fill="#8C8C8C" width="60" height="2"/>
<rect x="76" y="56" fill="#8C8C8C" width="60" height="2"/>
<rect x="76" y="48" fill="#8C8C8C" width="60" height="2"/>
<rect x="6" y="42" width="64" height="32"/>
<rect x="8" y="44" fill="#767676" width="60" height="28"/>
<rect x="12" y="44" fill="#8C8C8C" width="2" height="28"/>
<rect x="20" y="44" fill="#8C8C8C" width="2" height="28"/>
<rect x="28" y="44" fill="#8C8C8C" width="2" height="28"/>
<rect x="36" y="44" fill="#8C8C8C" width="2" height="28"/>
<rect x="44" y="44" fill="#8C8C8C" width="2" height="28"/>
<rect x="52" y="44" fill="#8C8C8C" width="2" height="28"/>
<rect x="60" y="44" fill="#8C8C8C" width="2" height="28"/>
<rect x="8" y="64" fill="#8C8C8C" width="60" height="2"/>
<rect x="8" y="56" fill="#8C8C8C" width="60" height="2"/>
<rect x="8" y="48" fill="#8C8C8C" width="60" height="2"/>
</svg>
