<?xml version="1.0" encoding="UTF-8" standalone="no"?>
<!-- Created with Inkscape (http://www.inkscape.org/) -->

<svg
   width="128"
   height="128"
   viewBox="0 0 128 128"
   version="1.1"
   id="svg1"
   xmlns="http://www.w3.org/2000/svg"
   xmlns:svg="http://www.w3.org/2000/svg">
  <path
     id="col1_outline"
     style="fill:#e59024;fill-opacity:1;stroke:none"
     d="m 8,8 v 96.08 c 8,12 36,15.92 52,15.92 V 23.92 C 44,23.92 16,20 8,8 Z m 8,16 c 12,6 28,8 36,8 v 80 c -12,0 -24,-2 -36,-10 z" />
  <path
     id="col1_fill"
     style="fill:#e59024;fill-opacity:0.35;stroke:none"
     d="m 16,24 c 12,6 28,8 36,8 v 80 c -12,0 -24,-2 -36,-10 z" />
  <path
     id="col2_outline"
     style="fill:#c0c0c0;fill-opacity:1;stroke:none"
     d="m 120,8 v 96.08 C 112,116.08 84,120 68,120 V 24 c 16,0 44,-4 52,-16 z m -8,16 c -12,6 -28,8 -36,8 v 80 c 12,0 24,-2 36,-10 z" />
  <path
     id="col2_fill"
     style="fill:#c0c0c0;fill-opacity:0.35;stroke:none"
     d="m 112,24 c -12,6 -28,8 -36,8 v 80 c 12,0 24,-2 36,-10 z" />
</svg>
