<?xml version="1.0" encoding="UTF-8" standalone="no"?>
<!-- Created with Inkscape (http://www.inkscape.org/) -->

<svg
   width="128"
   height="128"
   viewBox="0 0 128 128"
   version="1.1"
   id="svg1"
   xmlns="http://www.w3.org/2000/svg"
   xmlns:svg="http://www.w3.org/2000/svg">
  <path
     id="row1_outline"
     style="fill:#e59024;fill-opacity:1;stroke:none"
     d="m 8,8 v 44 c 8,12 40,16 56,16 16,0 48,-4 56,-16 V 8 C 112,20 80,24 64,24 48,24 16,20 8,8 Z m 8,14 c 12,8 36,10 48,10 12,0 36,-2 48,-10 V 50 C 100,58 76,60 64,60 52,60 28,58 16,50 Z" />
  <path
     id="row1_fill"
     style="fill:#e59024;fill-opacity:0.35;stroke:none"
     d="m 16,22 c 12,8 36,10 48,10 12,0 36,-2 48,-10 V 50 C 100,58 76,60 64,60 52,60 28,58 16,50 Z" />
  <path
     id="row2_outline"
     style="fill:#c0c0c0;fill-opacity:1;stroke:none"
     d="m 8,60 v 44 c 8,12 40,16 56,16 16,0 48,-4 56,-16 V 60 C 112,72 80,76 64,76 48,76 16,72 8,60 Z m 8,14 c 12,8 36,10 48,10 12,0 36,-2 48,-10 v 28 c -12,8 -36,10 -48,10 -12,0 -36,-2 -48,-10 z" />
  <path
     id="row2_fill"
     style="fill:#c0c0c0;fill-opacity:0.35;stroke:none"
     d="m 16,74 c 12,8 36,10 48,10 12,0 36,-2 48,-10 v 28 c -12,8 -36,10 -48,10 -12,0 -36,-2 -48,-10 z" />
</svg>
