<?xml version="1.0" encoding="utf-8"?>
<!-- Generator: Adobe Illustrator 27.2.0, SVG Export Plug-In . SVG Version: 6.00 Build 0)  -->
<svg version="1.1" id="Layer_2_00000160188294429806274830000016183598062000136606_"
	 xmlns="http://www.w3.org/2000/svg" xmlns:xlink="http://www.w3.org/1999/xlink" x="0px" y="0px" viewBox="0 0 128 128"
	 enable-background="new 0 0 128 128" xml:space="preserve">
<g>
	<path fill="#8E8E8E" d="M64,116.04c-21.7,0-46.06-8.2-52-26.5V23.42c10.94,8.76,31.52,12.82,52,12.82s41.06-4.06,52-12.82v66.12
		C110.06,107.84,85.7,116.04,64,116.04z"/>
	<path fill="#C0C0C0" d="M112,30.84V88.9c-5.66,15.98-28,23.16-48,23.16S21.66,104.9,16,88.9V30.84c12.74,6.7,31.18,9.42,48,9.42
		S99.26,37.54,112,30.84 M120,8.3c0,15.96-28,23.94-56,23.94S8,24.26,8,8.3v81.84c6,19.92,31,29.88,56,29.88s50-9.96,56-29.88V8.3
		L120,8.3z"/>
</g>
</svg>
