<?xml version="1.0" encoding="UTF-8" standalone="no"?>
<!-- Created with Inkscape (http://www.inkscape.org/) -->

<svg
   width="128"
   height="128"
   viewBox="0 0 128 128"
   version="1.1"
   id="svg1"
   xmlns="http://www.w3.org/2000/svg"
   xmlns:svg="http://www.w3.org/2000/svg">
  <path
     id="trunk"
     style="fill:#c0c0c0;fill-opacity:1;stroke:none"
     d="m 52,110 v 10 h 8 v -9 z m 16,1 v 9 h 8 v -10 z" />
  <path
     id="fill"
     style="display:none;fill:#3eb33e;fill-opacity:0.35;stroke:none"
     d="M 64,20 48,36 c 6,6 10,8 16,8 6,0 10,-2 16,-8 z M 52,48 40,60 c 10,10 16,12 24,12 8,0 14,-2 24,-12 L 76,48 c -4,2 -8,4 -12,4 -4,0 -8,-2 -12,-4 z M 46,74 32,88 c 12,10 22,12 32,12 10,0 20,-2 32,-12 L 82,74 c -6,4 -12,6 -18,6 -6,0 -12,-2 -18,-6 z" />
  <path
     id="treetop"
     style="fill:#3eb33e;fill-opacity:1;stroke:none"
     d="M 64,8 36,36 c 2,4 6,6 8,8 L 28,60 c 2,4 8,8 10,10 L 20,88 c 14,14 30,20 44,20 14,0 30,-6 44,-20 L 90,70 c 2,-2 8,-6 10,-10 L 84,44 c 2,-2 6,-4 8,-8 z m 0,12 16,16 C 74,42 70,44 64,44 58,44 54,42 48,36 Z M 52,48 c 4,2 8,4 12,4 4,0 8,-2 12,-4 L 88,60 C 78,70 72,72 64,72 56,72 50,70 40,60 Z m -6,26 c 6,4 12,6 18,6 6,0 12,-2 18,-6 L 96,88 C 84,98 74,100 64,100 54,100 44,98 32,88 Z" />
</svg>
