<?xml version="1.0" encoding="UTF-8" standalone="no"?>
<!-- Created with Inkscape (http://www.inkscape.org/) -->

<svg
   width="128"
   height="128"
   viewBox="0 0 128 128"
   version="1.1"
   id="svg1"
   xmlns="http://www.w3.org/2000/svg"
   xmlns:svg="http://www.w3.org/2000/svg">
  <path
     id="head"
     style="fill:#3eb33e;fill-opacity:1;stroke:none"
     d="M 56,8 C 44,8 32,20 32,32 v 20 c 0,8 4,12 16,12 v -8 c -4,0 -8,0 -8,-4 V 32 C 40,24 48,16 56,16 H 76 V 8 Z m 32,40 v 4 c 0,4 -4,4 -8,4 v 8 c 12,0 16,-4 16,-12 v -4 z" />
  <path
     id="body"
     style="fill:#3eb33e;fill-opacity:1;stroke:none"
     d="M 28,68 C 16,68 8,80 8,92 v 28 H 120 V 92 C 120,80 112,68 100,68 H 88 C 84,76 78,88 74,88 H 54 C 50,88 44,76 40,68 Z m 0,8 h 6 c 6,8 10,20 18,20 h 24 c 8,0 12,-12 18,-20 h 6 c 8,0 12,8 12,16 v 20 H 16 V 92 c 0,-8 4,-16 12,-16 z" />
  <path
     id="arrow_tail"
     style="fill:#c0c0c0;fill-opacity:1;stroke:none"
     d="m 98,4 h 4 c 1,0 2,1 2,2 v 16 c 0,1 -1,2 -2,2 h -4 c -1,0 -2,-1 -2,-2 V 6 c 0,-1 1,-2 2,-2 z" />
  <path
     id="arrow"
     style="fill:#c0c0c0;fill-opacity:1;stroke:none"
     d="m 100,44 21,-21 c 2,-2 -1,-5 -3,-3 l -5,5 c -6,4 -11,4 -13,4 -2,0 -7,0 -13,-4 l -5,-5 c -2,-2 -5,1 -3,3" />
</svg>
