<?xml version="1.0" encoding="UTF-8" standalone="no"?>
<!-- Created with Inkscape (http://www.inkscape.org/) -->

<svg
   width="128"
   height="128"
   viewBox="0 0 128 128"
   version="1.1"
   id="svg1"
   xmlns="http://www.w3.org/2000/svg"
   xmlns:svg="http://www.w3.org/2000/svg">
  <path
     id="top_sqr"
     style="fill:#3eb33e;fill-opacity:1;stroke:none"
     d="m 48,8 c -2,0 -4,2 -4,4 v 16 c 0,2 2,4 4,4 h 16 c 2,0 4,-2 4,-4 V 12 C 68,10 66,8 64,8 Z m 4,8 h 8 v 8 h -8 z" />
  <path
     id="curve"
     style="fill:#c0c0c0;fill-opacity:1;stroke:none"
     d="m 76,16 v 8 h 8 c 10,0 16,6 16,16 0,8 -4,12 -12,14 L 40,66 c -15,3 -20,11 -20,22 0,14 10,24 24,24 h 8 v -8 H 44 C 34,104 28,98 28,88 28,80 32,76 40,74 L 88,62 C 103,59 108,51 108,40 108,26 98,16 84,16 Z" />
  <path
     id="bottom_sqr"
     style="fill:#3eb33e;fill-opacity:1;stroke:none"
     d="m 64,96 c -2,0 -4,2 -4,4 v 16 c 0,2 2,4 4,4 h 16 c 2,0 4,-2 4,-4 v -16 c 0,-2 -2,-4 -4,-4 z m 4,8 h 8 v 8 h -8 z" />
</svg>
