<?xml version="1.0" encoding="utf-8"?>
<!-- Generator: Adobe Illustrator 27.2.0, SVG Export Plug-In . SVG Version: 6.00 Build 0)  -->
<svg version="1.1" id="Layer_2_00000112600397819724796660000015214443285542439058_"
	 xmlns="http://www.w3.org/2000/svg" xmlns:xlink="http://www.w3.org/1999/xlink" x="0px" y="0px" viewBox="0 0 128 128"
	 enable-background="new 0 0 128 128" xml:space="preserve">
<g>
	<path fill="#8E8E8E" d="M63.22,61.76c-25.42,0-46.28-7.54-51.22-18.42V23.42c10.94,8.76,31.52,12.82,52,12.82s41.06-4.06,52-12.82
		v19.84C110.4,54.18,88.92,61.76,63.22,61.76z"/>
	<path fill="#C0C0C0" d="M112,30.84v11.38c-5.52,9.08-25.54,15.54-48.78,15.54c-22.94,0-42.36-6.38-47.22-15.34V30.84
		c12.74,6.7,31.18,9.42,48,9.42S99.26,37.54,112,30.84 M120,8.3c0,15.96-28,23.94-56,23.94S8,24.26,8,8.3v35.84
		c5.66,14.46,30.32,21.6,55.22,21.6c25.08,0,50.42-7.26,56.78-21.6V8.3L120,8.3z"/>
</g>
<g>
	<path fill="#8E8E8E" d="M63.22,113.76c-25.42,0-46.28-7.54-51.22-18.42V75.42c10.94,8.76,31.52,12.82,52,12.82s41.06-4.06,52-12.82
		v19.84C110.4,106.18,88.92,113.76,63.22,113.76z"/>
	<path fill="#C0C0C0" d="M112,82.84v11.38c-5.52,9.08-25.54,15.54-48.78,15.54c-22.94,0-42.36-6.38-47.22-15.34V82.84
		c12.74,6.7,31.18,9.42,48,9.42S99.26,89.54,112,82.84 M120,60.3c0,15.96-28,23.94-56,23.94S8,76.26,8,60.3v35.84
		c5.66,14.46,30.32,21.6,55.22,21.6c25.08,0,50.42-7.26,56.78-21.6V60.3L120,60.3z"/>
</g>
</svg>
