<?xml version="1.0" encoding="utf-8"?>
<!-- Generator: Adobe Illustrator 27.2.0, SVG Export Plug-In . SVG Version: 6.00 Build 0)  -->
<svg version="1.1" id="Layer_2_00000108302867467168142050000001201272372693812899_"
	 xmlns="http://www.w3.org/2000/svg" xmlns:xlink="http://www.w3.org/1999/xlink" x="0px" y="0px" viewBox="0 0 128 128"
	 enable-background="new 0 0 128 128" xml:space="preserve">
<path fill="none" stroke="#C0C0C0" stroke-width="8" stroke-linecap="round" stroke-miterlimit="10" d="M12,40c0,16,0,32,0,48
	c17.34,9.34,34.66,18.66,52,28c17.34-9.34,34.66-18.66,52-28c0-16,0-32,0-48c-17.34-9.34-34.66-18.66-52-28
	C46.66,21.34,29.34,30.66,12,40z"/>
<path fill="none" stroke="#C0C0C0" stroke-width="8" stroke-linecap="round" stroke-miterlimit="10" d="M36,51.08
	c0,8.62,0,17.24,0,25.84C45.34,81.94,54.66,86.98,64,92c9.34-5.02,18.66-10.06,28-15.08c0-8.62,0-17.24,0-25.84
	C82.66,46.06,73.34,41.02,64,36C54.66,41.02,45.34,46.06,36,51.08z"/>
<line fill="none" stroke="#C0C0C0" stroke-width="8" stroke-linecap="round" stroke-miterlimit="10" x1="64" y1="36" x2="64" y2="14"/>
<line fill="none" stroke="#C0C0C0" stroke-width="8" stroke-linecap="round" stroke-miterlimit="10" x1="64" y1="114" x2="64" y2="92"/>
<line fill="none" stroke="#C0C0C0" stroke-width="8" stroke-linecap="round" stroke-miterlimit="10" x1="36" y1="50" x2="12" y2="40"/>
<line fill="none" stroke="#C0C0C0" stroke-width="8" stroke-linecap="round" stroke-miterlimit="10" x1="36" y1="78" x2="12" y2="88"/>
<line fill="none" stroke="#C0C0C0" stroke-width="8" stroke-linecap="round" stroke-miterlimit="10" x1="92" y1="50" x2="116" y2="40"/>
<line fill="none" stroke="#C0C0C0" stroke-width="8" stroke-linecap="round" stroke-miterlimit="10" x1="92" y1="78" x2="116" y2="88"/>
</svg>
