<?xml version="1.0" encoding="UTF-8" standalone="no"?>
<!-- Created with Inkscape (http://www.inkscape.org/) -->

<svg
   width="128"
   height="128"
   viewBox="0 0 128 128"
   version="1.1"
   id="svg1"
   xmlns="http://www.w3.org/2000/svg"
   xmlns:svg="http://www.w3.org/2000/svg">
  <path
     id="handle"
     style="fill:#c0c0c0;fill-opacity:1;stroke:none"
     d="m 52,16 v 36 h 8 V 16 h 8 v 36 h 8 V 16 C 76,12 72,8 68,8 h -8 c -4,0 -8,4 -8,8 z M 28,64 v 16 h 72 V 64 c 0,-4 -4,-8 -8,-8 H 36 c -4,0 -8,4 -8,8 z m 8,0 h 56 v 8 H 36 Z" />
  <path
     id="bristles"
     style="fill:#c0c0c0;fill-opacity:0.50;stroke:none"
     d="m 28,88 -12,24 v 8 h 96 v -8 L 100,88 h -8 l 12,24 H 90 L 84,88 h -8 l 6,24 H 68 V 88 h -8 v 24 H 46 l 6,-24 h -8 l -6,24 H 24 L 36,88 Z" />
</svg>
