<?xml version="1.0" encoding="UTF-8" standalone="no"?>
<!-- Created with Inkscape (http://www.inkscape.org/) -->

<svg
   width="128"
   height="128"
   viewBox="0 0 128 128"
   version="1.1"
   id="svg1"
   xmlns="http://www.w3.org/2000/svg"
   xmlns:svg="http://www.w3.org/2000/svg">
  <path
     id="square1"
     style="fill:#e59024;fill-opacity:1;stroke:none"
     d="M 8,8 V 64 H 64 V 8 Z m 8,8 H 50 L 16,50 Z m 40,6 V 56 H 22 Z" />
  <path
     id="square2"
     style="fill:#c0c0c0;fill-opacity:1;stroke:none"
     d="m 120,64 v 56 H 64 V 64 Z m -8,8 H 78 l 34,34 z m -40,6 v 34 h 34 z" />
  <path
     id="arrow1_tail"
     style="fill:#c0c0c0;fill-opacity:1;stroke:none"
     d="m 90,16 h 4 c 1,0 2,1 2,2 v 16 c 0,1 -1,2 -2,2 h -4 c -1,0 -2,-1 -2,-2 V 18 c 0,-1 1,-2 2,-2 z" />
  <path
     id="arrow1_head"
     style="fill:#c0c0c0;fill-opacity:1;stroke:none"
     d="m 92,56 21,-21 c 2,-2 -1,-5 -3,-3 l -5,5 c -6,4 -11,4 -13,4 -2,0 -7,0 -13,-4 l -5,-5 c -2,-2 -5,1 -3,3" />
  <path
     id="arrow2_head"
     style="fill:#c0c0c0;fill-opacity:1;stroke:none"
     d="m 36,72 21,21 c 2,2 -1,5 -3,3 l -5,-5 c -6,-4 -11,-4 -13,-4 -2,0 -7,0 -13,4 l -5,5 c -2,2 -5,-1 -3,-3" />
  <path
     id="arrow2_tail"
     style="fill:#c0c0c0;fill-opacity:1;stroke:none"
     d="m 34,92 h 4 c 1,0 2,1 2,2 v 16 c 0,1 -1,2 -2,2 h -4 c -1,0 -2,-1 -2,-2 V 94 c 0,-1 1,-2 2,-2 z" />
</svg>
