<?xml version="1.0" encoding="utf-8"?>
<!-- Generator: Adobe Illustrator 27.2.0, SVG Export Plug-In . SVG Version: 6.00 Build 0)  -->
<svg version="1.1" id="Layer_2_00000114778752450582238050000017562103569475165580_"
	 xmlns="http://www.w3.org/2000/svg" xmlns:xlink="http://www.w3.org/1999/xlink" x="0px" y="0px" viewBox="0 0 128 128"
	 enable-background="new 0 0 128 128" xml:space="preserve">
<path fill="none" stroke="#3EB33E" stroke-width="8" stroke-miterlimit="10" d="M12,116h104V92c-3.38-9.48-11.48-16.1-24-20
	c-2.96,8.66-8.34,13.3-16,18c-8.06,1.22-16.06,1.24-24,0c-6.92-5.58-12.26-10.24-16-18c-10.3,3.7-18.34,10.32-24,20V116z"/>
<polyline fill="none" stroke="#3EB33E" stroke-width="8" stroke-linecap="round" stroke-miterlimit="10" points="84,60 92,56 92,52 
	"/>
<path fill="none" stroke="#3EB33E" stroke-width="8" stroke-linecap="round" stroke-miterlimit="10" d="M72,11.1
	c-6.86-1.28-13.54-1.02-20,0.9c-6.8,3.88-12.08,9.26-16,16v28l8,4"/>
<rect x="96" y="8" fill="#C0C0C0" width="8" height="16"/>
<polyline fill="none" stroke="#C0C0C0" stroke-width="8" stroke-linecap="round" stroke-linejoin="round" stroke-miterlimit="10" points="
	82,22 100,40 118,22 "/>
</svg>
