<?xml version="1.0" encoding="utf-8"?>
<!-- Generator: Adobe Illustrator 27.2.0, SVG Export Plug-In . SVG Version: 6.00 Build 0)  -->
<svg version="1.1" id="Layer_2_00000102535640565835011190000015805210038073210512_"
	 xmlns="http://www.w3.org/2000/svg" xmlns:xlink="http://www.w3.org/1999/xlink" x="0px" y="0px" viewBox="0 0 128 128"
	 enable-background="new 0 0 128 128" xml:space="preserve">
<g>
	<g>
		<path fill="#8E8E8E" d="M52,115.2c-16.82-2.34-34.96-10.08-40-25.66v-66.1c9.06,7.24,24.58,11.06,40,12.32V115.2z"/>
		<path fill="#C0C0C0" d="M16,30.68c8.06,4.34,18.9,7.36,32,8.74v71.06c-13.92-2.76-27.72-9.46-32-21.58V30.68 M8,8.3v81.84
			c5.36,17.8,25.86,27.62,48,29.52V32.04C30.9,30.66,8,22.74,8,8.3L8,8.3z"/>
	</g>
	<g>
		<path fill="#8E8E8E" d="M76,35.76c15.42-1.26,30.94-5.08,40-12.32v66.1c-5.06,15.56-23.18,23.32-40,25.66V35.76z"/>
		<path fill="#C0C0C0" d="M112,30.68v58.2c-4.28,12.12-18.08,18.82-32,21.58V39.42C93.1,38.04,103.94,35.02,112,30.68 M120,8.3
			c0,14.44-22.9,22.34-48,23.72v87.64c22.12-1.9,42.64-11.72,48-29.52V8.3L120,8.3z"/>
	</g>
</g>
</svg>
