<?xml version="1.0" encoding="utf-8"?>
<!-- Generator: Adobe Illustrator 27.2.0, SVG Export Plug-In . SVG Version: 6.00 Build 0)  -->
<svg version="1.1" id="Layer_2_00000174603047721050449320000014017498309541072281_"
	 xmlns="http://www.w3.org/2000/svg" xmlns:xlink="http://www.w3.org/1999/xlink" x="0px" y="0px" viewBox="0 0 128 128"
	 enable-background="new 0 0 128 128" xml:space="preserve">
<g>
	<g>
		<path fill="#8E8E8E" d="M52,61.24c-20.46-1.88-35.82-8.7-40-17.88v-19.9c9.06,7.24,24.58,11.06,40,12.32V61.24z"/>
		<path fill="#C0C0C0" d="M16,30.68c8.06,4.34,18.9,7.36,32,8.74v17.34c-16.1-2.12-28.28-7.52-32-14.34V30.68 M8,8.3v35.84
			c5.1,13.06,25.72,20.14,48,21.38V32.04C30.9,30.66,8,22.74,8,8.3L8,8.3z"/>
	</g>
	<g>
		<path fill="#8E8E8E" d="M76,35.76c15.42-1.26,30.94-5.08,40-12.32v19.8C111.4,52.2,96.06,59,76,61.08V35.76z"/>
		<path fill="#C0C0C0" d="M112,30.68v11.54c-4.08,6.68-16.24,12.06-32,14.36V39.42C93.1,38.04,103.94,35.02,112,30.68 M120,8.3
			c0,14.44-22.9,22.34-48,23.72v33.42c21.98-1.5,42.38-8.62,48-21.3V8.3L120,8.3z"/>
	</g>
</g>
<g>
	<g>
		<path fill="#8E8E8E" d="M52,115.24c-20.48-1.88-35.84-8.7-40-17.88v-19.9c9.06,7.24,24.58,11.06,40,12.32V115.24z"/>
		<path fill="#C0C0C0" d="M16,84.68c8.06,4.34,18.9,7.36,32,8.74v17.34c-16.1-2.12-28.28-7.52-32-14.34V84.68 M8,62.3v35.84
			c5.1,13.06,25.72,20.14,48,21.38V86.04C30.9,84.66,8,76.74,8,62.3L8,62.3z"/>
	</g>
	<g>
		<path fill="#8E8E8E" d="M76,89.76c15.42-1.26,30.94-5.08,40-12.32v19.8c-4.6,8.96-19.94,15.76-40,17.84V89.76z"/>
		<path fill="#C0C0C0" d="M112,84.68v11.54c-4.08,6.68-16.24,12.06-32,14.36V93.42C93.1,92.04,103.94,89.02,112,84.68 M120,62.3
			c0,14.44-22.9,22.34-48,23.72v33.42c21.98-1.5,42.38-8.62,48-21.3V62.3L120,62.3z"/>
	</g>
</g>
</svg>
