<?xml version="1.0" encoding="UTF-8" standalone="no"?>
<!-- Created with Inkscape (http://www.inkscape.org/) -->

<svg
   width="128"
   height="128"
   viewBox="0 0 128 128"
   version="1.1"
   id="svg1"
   xmlns="http://www.w3.org/2000/svg"
   xmlns:svg="http://www.w3.org/2000/svg">
  <path
     id="outline1"
     style="fill:#e59024;fill-opacity:1;stroke:none"
     d="m 8,8 v 44 c 8,12 36,16 52,16 V 24 C 44,24 16,20 8,8 Z m 8,16 c 12,6 28,8 36,8 V 60 C 44,60 28,58 16,50 Z" />
  <path
     id="fill1"
     style="fill:#e59024;fill-opacity:0.35;stroke:none"
     d="m 16,24 c 12,6 28,8 36,8 V 60 C 44,60 28,58 16,50 Z" />
  <path
     id="outline2"
     style="fill:#c0c0c0;fill-opacity:1;stroke:none"
     d="M 120,8 C 112,20 84,24 68,24 v 44 c 16,0 44,-4 52,-16 z m -8,16 V 50 C 100,58 84,60 76,60 V 32 c 8,0 24,-2 36,-8 z M 8,60 v 44 c 8,12 36,16 52,16 V 76 C 44,76 16,72 8,60 Z m 112,0 C 112,72 84,76 68,76 v 44 c 16,0 44,-4 52,-16 z M 16,76 c 12,6 28,8 36,8 v 28 c -8,0 -24,-2 -36,-10 z m 96,0 v 26 c -12,8 -28,10 -36,10 V 84 c 8,0 24,-2 36,-8 z" />
  <path
     id="fill2"
     style="fill:#c0c0c0;fill-opacity:0.35;stroke:none"
     d="m 112,24 c -12,6 -28,8 -36,8 v 28 c 8,0 24,-2 36,-10 z M 16,76 v 26 c 12,8 28,10 36,10 V 84 C 44,84 28,82 16,76 Z m 96,0 c -12,6 -28,8 -36,8 v 28 c 8,0 24,-2 36,-10 z" />
</svg>
