<?xml version="1.0" encoding="UTF-8" standalone="no"?>
<!-- Created with Inkscape (http://www.inkscape.org/) -->

<svg
   width="128"
   height="128"
   viewBox="0 0 128 128"
   version="1.1"
   id="svg1"
   xmlns="http://www.w3.org/2000/svg"
   xmlns:svg="http://www.w3.org/2000/svg">
  <path
     id="frame"
     style="fill:#c0c0c0;fill-opacity:1;stroke:none"
     d="M 8,8 V 120 H 120 V 8 Z m 8,8 h 96 v 96 H 16 Z" />
  <path
     id="fill"
     style="fill:#c0c0c0;fill-opacity:0.35;stroke:none"
     d="m 16,16 h 96 v 96 H 16 Z" />
  <path
     id="number"
     style="fill:#c0c0c0;fill-opacity:1;stroke:none"
     d="m 36,70 c 0,-11 1,-23 8,-32 6,-8 16,-13 26,-14 6,0 11,0 16,1 v 13 c -8,-2 -16,-2 -23,1 -7,3 -8,8 -10,14 -1,4 -1,6 -1,8 2,-2 4,-5 7,-7 5,-3 12,-3 19,0 8,3 13,9 14,17 1,9 -1,21 -8,27 -7,6 -19,7 -28,5 C 47,101 39,92 37,83 36,78 36,74 36,70 Z m 29,21 c 5,0 9,-4 10,-9 1,-5 1,-13 -4,-16 -7,-4 -16,0 -18,8 -1,6 0,11 6,15 2,1 4,2 6,2 z" />
</svg>
