<?xml version="1.0" encoding="UTF-8" standalone="no"?>
<!-- Created with Inkscape (http://www.inkscape.org/) -->

<svg
   width="128"
   height="128"
   viewBox="0 0 128 128"
   version="1.1"
   id="svg1"
   xmlns="http://www.w3.org/2000/svg"
   xmlns:svg="http://www.w3.org/2000/svg">
  <path
     id="frame"
     style="fill:#c0c0c0;fill-opacity:1;stroke:none"
     d="M 8,8 V 120 H 120 V 8 Z m 8,8 h 96 v 96 H 16 Z" />
  <path
     id="fill"
     style="fill:#c0c0c0;fill-opacity:0.35;stroke:none"
     d="m 16,16 h 96 v 96 H 16 Z" />
  <path
     id="number"
     style="fill:#c0c0c0;fill-opacity:1;stroke:none"
     d="m 90,42 c 0,6 -2,10 -6,14 -2,2 -4,4 -12,6 8,2 8,2 12,4 6,4 8,8 8,14 0,8 -4,16 -12,20 -4,2 -12,4 -16,4 -10,0 -16,0 -28,-4 V 86 c 10,4 20,6 30,4 6,-2 8,-6 8,-10 0,-2 0,-6 -4,-8 C 66,70 56,70 48,70 V 56 c 8,0 14,0 20,-2 6,-4 6,-8 4,-12 -2,-4 -10,-4 -16,-4 -4,0 -8,2 -12,4 L 36,32 c 8,-6 16,-8 28,-8 6,0 18,2 22,8 2,2 4,6 4,10 z" />
</svg>
